<svg width="20" height="20" viewBox="0 0 20 20" fill="none" xmlns="http://www.w3.org/2000/svg">
<path fill-rule="evenodd" clip-rule="evenodd" d="M7.67082 9.66459C7.85606 10.0351 7.70589 10.4856 7.33541 10.6708L4.67705 12L10 14.6615L15.3229 12L12.6646 10.6708C12.2941 10.4856 12.1439 10.0351 12.3292 9.66459C12.5144 9.2941 12.9649 9.14393 13.3354 9.32918L17.3354 11.3292C17.5895 11.4562 17.75 11.7159 17.75 12C17.75 12.2841 17.5895 12.5438 17.3354 12.6708L10.3354 16.1708C10.1243 16.2764 9.87574 16.2764 9.66459 16.1708L2.66459 12.6708C2.4105 12.5438 2.25 12.2841 2.25 12C2.25 11.7159 2.4105 11.4562 2.66459 11.3292L6.66459 9.32918C7.03507 9.14393 7.48558 9.2941 7.67082 9.66459Z" fill="#2B2B35"/>
<path fill-rule="evenodd" clip-rule="evenodd" d="M10 1.5835C10.4142 1.5835 10.75 1.91928 10.75 2.3335V10.6668C10.75 11.081 10.4142 11.4168 10 11.4168C9.58579 11.4168 9.25 11.081 9.25 10.6668V2.3335C9.25 1.91928 9.58579 1.5835 10 1.5835Z" fill="#2B2B35"/>
<path fill-rule="evenodd" clip-rule="evenodd" d="M9.46967 1.80317C9.76256 1.51027 10.2374 1.51027 10.5303 1.80317L13.8637 5.1365C14.1566 5.42939 14.1566 5.90427 13.8637 6.19716C13.5708 6.49005 13.0959 6.49005 12.803 6.19716L9.46967 2.86383C9.17678 2.57093 9.17678 2.09606 9.46967 1.80317Z" fill="#2B2B35"/>
<path fill-rule="evenodd" clip-rule="evenodd" d="M10.5297 1.80317C10.8226 2.09606 10.8226 2.57093 10.5297 2.86383L7.19635 6.19716C6.90345 6.49005 6.42858 6.49005 6.13569 6.19716C5.84279 5.90427 5.84279 5.42939 6.13569 5.1365L9.46902 1.80317C9.76191 1.51027 10.2368 1.51027 10.5297 1.80317Z" fill="#2B2B35"/>
<path fill-rule="evenodd" clip-rule="evenodd" d="M9.66475 18.9208C9.8759 19.0264 10.1244 19.0264 10.3356 18.9208L18.8356 14.6708C19.2061 14.4856 19.3562 14.0351 19.171 13.6646C18.9857 13.2941 18.5352 13.1439 18.1648 13.3292L10.0002 17.4115L1.83557 13.3292C1.46509 13.1439 1.01459 13.2941 0.829344 13.6646C0.644102 14.0351 0.79427 14.4856 1.16475 14.6708L9.66475 18.9208Z" fill="#2B2B35"/>
</svg>
