<svg width="20" height="20" viewBox="0 0 20 20" fill="none" xmlns="http://www.w3.org/2000/svg">
<path fill-rule="evenodd" clip-rule="evenodd" d="M7.67082 9.33541C7.85606 8.96493 7.70589 8.51443 7.33541 8.32918L4.67705 7L10 4.33853L15.3229 7L12.6646 8.32918C12.2941 8.51443 12.1439 8.96493 12.3292 9.33541C12.5144 9.7059 12.9649 9.85607 13.3354 9.67082L17.3354 7.67082C17.5895 7.54378 17.75 7.28408 17.75 7C17.75 6.71592 17.5895 6.45623 17.3354 6.32918L10.3354 2.82918C10.1243 2.72361 9.87574 2.72361 9.66459 2.82918L2.66459 6.32918C2.4105 6.45623 2.25 6.71592 2.25 7C2.25 7.28408 2.4105 7.54378 2.66459 7.67082L6.66459 9.67082C7.03507 9.85607 7.48558 9.7059 7.67082 9.33541Z" fill="#2B2B35"/>
<path fill-rule="evenodd" clip-rule="evenodd" d="M10 17.4165C10.4142 17.4165 10.75 17.0807 10.75 16.6665V8.33317C10.75 7.91896 10.4142 7.58317 10 7.58317C9.58579 7.58317 9.25 7.91896 9.25 8.33317V16.6665C9.25 17.0807 9.58579 17.4165 10 17.4165Z" fill="#2B2B35"/>
<path fill-rule="evenodd" clip-rule="evenodd" d="M9.46967 17.1968C9.76256 17.4897 10.2374 17.4897 10.5303 17.1968L13.8637 13.8635C14.1566 13.5706 14.1566 13.0957 13.8637 12.8028C13.5708 12.5099 13.0959 12.5099 12.803 12.8028L9.46967 16.1362C9.17678 16.4291 9.17678 16.9039 9.46967 17.1968Z" fill="#2B2B35"/>
<path fill-rule="evenodd" clip-rule="evenodd" d="M10.5297 17.1968C10.8226 16.9039 10.8226 16.4291 10.5297 16.1362L7.19635 12.8028C6.90345 12.5099 6.42858 12.5099 6.13569 12.8028C5.84279 13.0957 5.84279 13.5706 6.13569 13.8635L9.46902 17.1968C9.76191 17.4897 10.2368 17.4897 10.5297 17.1968Z" fill="#2B2B35"/>
</svg>
