<svg width="20" height="20" viewBox="0 0 20 20" fill="none" xmlns="http://www.w3.org/2000/svg">
<path fill-rule="evenodd" clip-rule="evenodd" d="M7.67082 10.3354C7.85606 9.96493 7.70589 9.51443 7.33541 9.32918L4.67705 8L10 5.33853L15.3229 8L12.6646 9.32918C12.2941 9.51443 12.1439 9.96493 12.3292 10.3354C12.5144 10.7059 12.9649 10.8561 13.3354 10.6708L17.3354 8.67082C17.5895 8.54378 17.75 8.28408 17.75 8C17.75 7.71592 17.5895 7.45623 17.3354 7.32918L10.3354 3.82918C10.1243 3.72361 9.87574 3.72361 9.66459 3.82918L2.66459 7.32918C2.4105 7.45623 2.25 7.71592 2.25 8C2.25 8.28408 2.4105 8.54378 2.66459 8.67082L6.66459 10.6708C7.03507 10.8561 7.48558 10.7059 7.67082 10.3354Z" fill="#2B2B35"/>
<path fill-rule="evenodd" clip-rule="evenodd" d="M10 18.4165C10.4142 18.4165 10.75 18.0807 10.75 17.6665V9.33317C10.75 8.91896 10.4142 8.58317 10 8.58317C9.58579 8.58317 9.25 8.91896 9.25 9.33317V17.6665C9.25 18.0807 9.58579 18.4165 10 18.4165Z" fill="#2B2B35"/>
<path fill-rule="evenodd" clip-rule="evenodd" d="M9.46967 18.1968C9.76256 18.4897 10.2374 18.4897 10.5303 18.1968L13.8637 14.8635C14.1566 14.5706 14.1566 14.0957 13.8637 13.8028C13.5708 13.5099 13.0959 13.5099 12.803 13.8028L9.46967 17.1362C9.17678 17.4291 9.17678 17.9039 9.46967 18.1968Z" fill="#2B2B35"/>
<path fill-rule="evenodd" clip-rule="evenodd" d="M10.5297 18.1968C10.8226 17.9039 10.8226 17.4291 10.5297 17.1362L7.19635 13.8028C6.90345 13.5099 6.42858 13.5099 6.13569 13.8028C5.84279 14.0957 5.84279 14.5706 6.13569 14.8635L9.46902 18.1968C9.76191 18.4897 10.2368 18.4897 10.5297 18.1968Z" fill="#2B2B35"/>
<path fill-rule="evenodd" clip-rule="evenodd" d="M9.66475 1.07918C9.8759 0.973607 10.1244 0.973607 10.3356 1.07918L18.8356 5.32918C19.2061 5.51442 19.3562 5.96493 19.171 6.33541C18.9857 6.70589 18.5352 6.85606 18.1648 6.67082L10.0002 2.58853L1.83557 6.67082C1.46509 6.85606 1.01459 6.70589 0.829344 6.33541C0.644102 5.96493 0.79427 5.51442 1.16475 5.32918L9.66475 1.07918Z" fill="#2B2B35"/>
</svg>
