<svg width="24" height="25" viewBox="0 0 24 25" fill="none" xmlns="http://www.w3.org/2000/svg">
<path d="M12 21.5001C16.9706 21.5001 21 17.4707 21 12.5001C21 7.52956 16.9706 3.50012 12 3.50012C7.02944 3.50012 3 7.52956 3 12.5001C3 17.4707 7.02944 21.5001 12 21.5001Z" stroke="#0052A3" stroke-width="1.5" stroke-linecap="round" stroke-linejoin="round"/>
<path d="M12 21.5001C16.9706 21.5001 21 17.4707 21 12.5001C21 7.52956 16.9706 3.50012 12 3.50012C7.02944 3.50012 3 7.52956 3 12.5001C3 17.4707 7.02944 21.5001 12 21.5001Z" stroke="black" stroke-opacity="0.2" stroke-width="1.5" stroke-linecap="round" stroke-linejoin="round"/>
<path d="M10 17.0001L12 14.0001M12 14.0001L14 17.0001M12 14.0001V12.0001M12 12.0001L15 11.0001M12 12.0001L9 11.0001" stroke="#0052A3" stroke-width="1.5" stroke-linecap="round" stroke-linejoin="round"/>
<path d="M10 17.0001L12 14.0001M12 14.0001L14 17.0001M12 14.0001V12.0001M12 12.0001L15 11.0001M12 12.0001L9 11.0001" stroke="black" stroke-opacity="0.2" stroke-width="1.5" stroke-linecap="round" stroke-linejoin="round"/>
<path d="M12 8.50012C12.2761 8.50012 12.5 8.27627 12.5 8.00012C12.5 7.72398 12.2761 7.50012 12 7.50012C11.7239 7.50012 11.5 7.72398 11.5 8.00012C11.5 8.27627 11.7239 8.50012 12 8.50012Z" fill="#0052A3"/>
<path d="M12 8.50012C12.2761 8.50012 12.5 8.27627 12.5 8.00012C12.5 7.72398 12.2761 7.50012 12 7.50012C11.7239 7.50012 11.5 7.72398 11.5 8.00012C11.5 8.27627 11.7239 8.50012 12 8.50012Z" fill="black" fill-opacity="0.2"/>
<path d="M12 8.50012C12.2761 8.50012 12.5 8.27627 12.5 8.00012C12.5 7.72398 12.2761 7.50012 12 7.50012C11.7239 7.50012 11.5 7.72398 11.5 8.00012C11.5 8.27627 11.7239 8.50012 12 8.50012Z" stroke="#0052A3" stroke-width="1.5" stroke-linecap="round" stroke-linejoin="round"/>
<path d="M12 8.50012C12.2761 8.50012 12.5 8.27627 12.5 8.00012C12.5 7.72398 12.2761 7.50012 12 7.50012C11.7239 7.50012 11.5 7.72398 11.5 8.00012C11.5 8.27627 11.7239 8.50012 12 8.50012Z" stroke="black" stroke-opacity="0.2" stroke-width="1.5" stroke-linecap="round" stroke-linejoin="round"/>
</svg>
