<svg width="16" height="16" viewBox="0 0 16 16" fill="none" xmlns="http://www.w3.org/2000/svg">
<path fill-rule="evenodd" clip-rule="evenodd" d="M10.5999 3.33334C10.5999 3.29652 10.6298 3.26668 10.6666 3.26668H13.3332C13.3701 3.26668 13.3999 3.29652 13.3999 3.33334V12.6667C13.3999 12.7035 13.3701 12.7333 13.3332 12.7333H10.5999L10.5999 3.33334ZM9.3999 12.7333V6.00001C9.3999 5.96319 9.37005 5.93334 9.33324 5.93334H6.66657C6.62975 5.93334 6.5999 5.96319 6.5999 6.00001V8.66668L6.5999 12.7333H9.3999ZM9.39991 4.73507C9.37783 4.73392 9.3556 4.73334 9.33324 4.73334H6.66657C5.96701 4.73334 5.3999 5.30045 5.3999 6.00001L5.3999 7.40173C5.37783 7.40059 5.3556 7.40001 5.33324 7.40001H2.66657C1.96701 7.40001 1.3999 7.96712 1.3999 8.66668V12.6667C1.3999 13.3662 1.96701 13.9333 2.66657 13.9333H5.99883L5.99991 13.9333L9.9999 13.9333C10.0003 13.9333 10.0006 13.9333 10.001 13.9333H13.3332C14.0328 13.9333 14.5999 13.3662 14.5999 12.6667V3.33334C14.5999 2.63378 14.0328 2.06668 13.3332 2.06668H10.6666C9.96702 2.06668 9.39991 2.63378 9.39991 3.33334L9.39991 4.73507ZM5.33324 8.60001C5.37005 8.60001 5.3999 8.62986 5.3999 8.66668V12.7333H2.66657C2.62975 12.7333 2.5999 12.7035 2.5999 12.6667V8.66668C2.5999 8.62986 2.62975 8.60001 2.66657 8.60001H5.33324Z" fill="#2B2B35"/>
</svg>
