<svg width="16" height="16" viewBox="0 0 16 16" fill="none" xmlns="http://www.w3.org/2000/svg"><path d="M2.82064 14H13.195C13.4368 13.9983 13.6746 13.9368 13.8875 13.821C14.1003 13.7052 14.2819 13.5385 14.4164 13.3355C14.5509 13.1325 14.6341 12.8993 14.6589 12.6564C14.6837 12.4134 14.6492 12.168 14.5585 11.9416L9.29723 2.77228C9.16906 2.5383 8.98119 2.34326 8.75313 2.20744C8.52508 2.07163 8.26517 2 8.00043 2C7.73569 2 7.47578 2.07163 7.24773 2.20744C7.01967 2.34326 6.8318 2.5383 6.70363 2.77228L1.44232 11.9416C1.35336 12.1628 1.31808 12.4024 1.33943 12.6402C1.36079 12.878 1.43815 13.1072 1.56508 13.3087C1.692 13.5101 1.86479 13.678 2.06903 13.7983C2.27327 13.9185 2.50303 13.9877 2.73913 14" fill="#FFC42A"/><path fill-rule="evenodd" clip-rule="evenodd" d="M7.99998 6C8.36817 6 8.66665 6.29848 8.66665 6.66667V8.90909C8.66665 9.27728 8.36817 9.57576 7.99998 9.57576C7.63179 9.57576 7.33331 9.27728 7.33331 8.90909V6.66667C7.33331 6.29848 7.63179 6 7.99998 6ZM7.99998 10.6667C8.36817 10.6667 8.66665 10.9651 8.66665 11.3333V11.3422C8.66665 11.7104 8.36817 12.0089 7.99998 12.0089C7.63179 12.0089 7.33331 11.7104 7.33331 11.3422V11.3333C7.33331 10.9651 7.63179 10.6667 7.99998 10.6667Z" fill="#2B2B35"/></svg>
