<svg width="16" height="16" viewBox="0 0 16 16" fill="none" xmlns="http://www.w3.org/2000/svg">
<path fill-rule="evenodd" clip-rule="evenodd" d="M8.09206 2.87465C8.09206 2.76704 7.98015 2.61083 7.752 2.61083L3.52977 2.61083C3.30162 2.61083 3.18971 2.76704 3.18971 2.87465L3.18971 5.64827L7.752 5.64827C7.98015 5.64827 8.09206 5.49206 8.09206 5.38445L8.09206 2.87465ZM7.752 1.88356C8.30114 1.88356 8.81934 2.28919 8.81934 2.87465L8.81934 5.38445C8.81934 5.9699 8.30114 6.37554 7.752 6.37554L2.8263 6.37554C2.62546 6.37554 2.46243 6.21273 2.46243 6.0119L2.46243 2.87465C2.46243 2.28919 2.98063 1.88356 3.52977 1.88356L7.752 1.88356Z" fill="#2B2B35"/>
<path fill-rule="evenodd" clip-rule="evenodd" d="M10.9068 10.4041C10.9068 10.2965 10.7948 10.1403 10.5667 10.1403L3.18959 10.1403L3.18959 13.0247C3.18989 13.0266 3.19038 13.0293 3.19117 13.0327C3.19436 13.0465 3.20073 13.0642 3.21235 13.0809L3.21264 13.0813C3.22291 13.0961 3.27958 13.1777 3.52965 13.1777L10.5667 13.1777C10.7948 13.1777 10.9068 13.0215 10.9068 12.9139L10.9068 10.4041ZM10.5667 9.41298C11.1158 9.41298 11.634 9.81861 11.634 10.4041L11.634 12.9139C11.634 13.4993 11.1158 13.905 10.5667 13.905L3.52965 13.905C3.07846 13.905 2.78193 13.7355 2.61548 13.4964C2.53914 13.3867 2.50152 13.2781 2.48272 13.1971C2.47324 13.1562 2.46818 13.1209 2.46547 13.0936C2.46411 13.0799 2.46333 13.0681 2.46288 13.0585C2.46265 13.0536 2.46251 13.0493 2.46243 13.0455L2.46234 13.0403L2.46232 13.038L2.46232 13.0369L2.46231 13.0364C2.46231 13.0362 2.46231 13.0359 2.82595 13.0359L2.46231 13.0359L2.46231 9.77662C2.46231 9.5758 2.62511 9.41299 2.82595 9.41299L10.5667 9.41298Z" fill="#2B2B35"/>
<path fill-rule="evenodd" clip-rule="evenodd" d="M13.7217 6.63936C13.7217 6.53175 13.6098 6.37555 13.3816 6.37555L3.18971 6.37555L3.18971 9.41298L13.3816 9.41298C13.6098 9.41298 13.7217 9.25677 13.7217 9.14916L13.7217 6.63936ZM2.6416 6.01191L2.46244 6.01191L2.46244 9.77661C2.46244 9.97744 2.62525 10.1402 2.82608 10.1402L13.3816 10.1402C13.9308 10.1402 14.449 9.73462 14.449 9.14916L14.449 6.63936C14.449 6.05391 13.9308 5.64828 13.3816 5.64828L2.82699 5.64827C2.82668 5.64827 2.82638 5.64827 2.82608 5.64827L2.80289 5.64827C2.67667 5.77437 2.63813 5.90072 2.6416 6.01191Z" fill="#2B2B35"/>
</svg>
