<svg width="16" height="16" viewBox="0 0 16 16" fill="none" xmlns="http://www.w3.org/2000/svg"><path fill-rule="evenodd" clip-rule="evenodd" d="M14.6666 7.99992C14.6666 11.6818 11.6818 14.6666 7.99992 14.6666C4.31802 14.6666 1.33325 11.6818 1.33325 7.99992C1.33325 4.31802 4.31802 1.33325 7.99992 1.33325C11.6818 1.33325 14.6666 4.31802 14.6666 7.99992ZM6.17053 5.38486C5.95358 5.1679 5.60182 5.1679 5.38486 5.38486C5.1679 5.60182 5.1679 5.95358 5.38486 6.17053L7.21424 7.99992L5.38486 9.8293C5.1679 10.0463 5.1679 10.398 5.38486 10.615C5.60182 10.8319 5.95358 10.8319 6.17053 10.615L7.99992 8.78559L9.8293 10.615C10.0463 10.8319 10.398 10.8319 10.615 10.615C10.8319 10.398 10.8319 10.0463 10.615 9.8293L8.78559 7.99992L10.615 6.17053C10.8319 5.95358 10.8319 5.60182 10.615 5.38486C10.398 5.1679 10.0463 5.1679 9.8293 5.38486L7.99992 7.21424L6.17053 5.38486Z" fill="#D74B23"/></svg>
