<svg width="16" height="16" viewBox="0 0 16 16" fill="none" xmlns="http://www.w3.org/2000/svg">
<path fill-rule="evenodd" clip-rule="evenodd" d="M8.5999 2.63296V4.78837C9.92297 5.03396 10.966 6.07695 11.2116 7.4H13.3669C13.0903 4.89703 11.1029 2.90965 8.5999 2.63296ZM13.3669 8.6H11.2117C10.93 10.1176 9.59916 11.2667 7.99997 11.2667C6.19584 11.2667 4.7333 9.8042 4.7333 8.00007C4.7333 6.40092 5.88238 5.07015 7.3999 4.78839V2.63296C4.69993 2.93143 2.5999 5.22047 2.5999 8C2.5999 10.9823 5.01757 13.4 7.9999 13.4C10.7794 13.4 13.0685 11.3 13.3669 8.6ZM14.5999 8C14.5999 4.35492 11.645 1.4 7.9999 1.4C4.35482 1.4 1.3999 4.35492 1.3999 8C1.3999 11.6451 4.35482 14.6 7.9999 14.6C11.645 14.6 14.5999 11.6451 14.5999 8ZM7.99997 5.9334C9.13859 5.9334 10.0621 6.85419 10.0666 7.99176L10.0666 8L10.0666 8.00786C10.0624 9.14567 9.13876 10.0667 7.99997 10.0667C6.85858 10.0667 5.9333 9.14146 5.9333 8.00007C5.9333 6.85868 6.85858 5.9334 7.99997 5.9334Z" fill="#2B2B35"/>
</svg>
