<svg width="16" height="16" viewBox="0 0 16 16" fill="none" stroke="#2B2B35" xmlns="http://www.w3.org/2000/svg">
  <path d="M13.3335 4.66669H2.66683C1.93045 4.66669 1.3335 5.26364 1.3335 6.00002V12.6667C1.3335 13.4031 1.93045 14 2.66683 14H13.3335C14.0699 14 14.6668 13.4031 14.6668 12.6667V6.00002C14.6668 5.26364 14.0699 4.66669 13.3335 4.66669Z" stroke-linecap="round" stroke-linejoin="round"/>
  <path d="M10.6668 14V3.33333C10.6668 2.97971 10.5264 2.64057 10.2763 2.39052C10.0263 2.14048 9.68712 2 9.3335 2H6.66683C6.31321 2 5.97407 2.14048 5.72402 2.39052C5.47397 2.64057 5.3335 2.97971 5.3335 3.33333V14" stroke-linecap="round" stroke-linejoin="round"/>
</svg>
