
<svg width="12" height="12" viewBox="0 0 12 12" fill="none" xmlns="http://www.w3.org/2000/svg" fill="black">
<path d="M6 11C3.2385 11 1 8.7615 1 6C1 3.2385 3.2385 1 6 1C8.7615 1 11 3.2385 11 6C11 8.7615 8.7615 11 6 11ZM6 7.5C5.72386 7.5 5.5 7.72386 5.5 8V8C5.5 8.27614 5.72386 8.5 6 8.5V8.5C6.27614 8.5 6.5 8.27614 6.5 8V8C6.5 7.72386 6.27614 7.5 6 7.5V7.5ZM6 3.5C5.72386 3.5 5.5 3.72386 5.5 4V6C5.5 6.27614 5.72386 6.5 6 6.5V6.5C6.27614 6.5 6.5 6.27614 6.5 6V4C6.5 3.72386 6.27614 3.5 6 3.5V3.5Z" />
</svg>
