<svg xmlns="http://www.w3.org/2000/svg" width="13" height="17" viewBox="0 0 13 17" fill="none">
  <path d="M8.50016 9.60839C8.86835 9.60839 9.16683 9.30991 9.16683 8.94172C9.16683 8.57353 8.86835 8.27505 8.50016 8.27505C8.13197 8.27505 7.8335 8.57353 7.8335 8.94172C7.8335 9.30991 8.13197 9.60839 8.50016 9.60839Z" fill="#2B2B35" stroke="#2B2B35" stroke-linecap="round" stroke-linejoin="round"/>
  <path d="M4.16667 9.60839C4.53486 9.60839 4.83333 9.30991 4.83333 8.94172C4.83333 8.57353 4.53486 8.27505 4.16667 8.27505C3.79848 8.27505 3.5 8.57353 3.5 8.94172C3.5 9.30991 3.79848 9.60839 4.16667 9.60839Z" fill="#2B2B35" stroke="#2B2B35" stroke-linecap="round" stroke-linejoin="round"/>
  <path d="M8.50016 14.275C8.86835 14.275 9.16683 13.9765 9.16683 13.6083C9.16683 13.2402 8.86835 12.9417 8.50016 12.9417C8.13197 12.9417 7.8335 13.2402 7.8335 13.6083C7.8335 13.9765 8.13197 14.275 8.50016 14.275Z" fill="#2B2B35" stroke="#2B2B35" stroke-linecap="round" stroke-linejoin="round"/>
  <path d="M4.16667 14.275C4.53486 14.275 4.83333 13.9765 4.83333 13.6083C4.83333 13.2402 4.53486 12.9417 4.16667 12.9417C3.79848 12.9417 3.5 13.2402 3.5 13.6083C3.5 13.9765 3.79848 14.275 4.16667 14.275Z" fill="#2B2B35" stroke="#2B2B35" stroke-linecap="round" stroke-linejoin="round"/>
  <path d="M8.50016 5.27501C8.86835 5.27501 9.16683 4.97654 9.16683 4.60835C9.16683 4.24016 8.86835 3.94168 8.50016 3.94168C8.13197 3.94168 7.8335 4.24016 7.8335 4.60835C7.8335 4.97654 8.13197 5.27501 8.50016 5.27501Z" fill="#2B2B35" stroke="#2B2B35" stroke-linecap="round" stroke-linejoin="round"/>
  <path d="M4.16667 5.27501C4.53486 5.27501 4.83333 4.97654 4.83333 4.60835C4.83333 4.24016 4.53486 3.94168 4.16667 3.94168C3.79848 3.94168 3.5 4.24016 3.5 4.60835C3.5 4.97654 3.79848 5.27501 4.16667 5.27501Z" fill="#2B2B35" stroke="#2B2B35" stroke-linecap="round" stroke-linejoin="round"/>
</svg>
