<svg width="14" height="14" viewBox="0 0 14 14" fill="none" xmlns="http://www.w3.org/2000/svg">
<path fill-rule="evenodd" clip-rule="evenodd" d="M7 1.5C3.96243 1.5 1.5 3.96243 1.5 7C1.5 10.0376 3.96243 12.5 7 12.5C10.0376 12.5 12.5 10.0376 12.5 7C12.5 3.96243 10.0376 1.5 7 1.5ZM0.5 7C0.5 3.41015 3.41015 0.5 7 0.5C10.5899 0.5 13.5 3.41015 13.5 7C13.5 10.5899 10.5899 13.5 7 13.5C3.41015 13.5 0.5 10.5899 0.5 7ZM6.79504 4.73433C6.497 4.73433 6.22044 4.83631 6.02433 5.00441C5.82997 5.171 5.73433 5.38371 5.73433 5.59105C5.73433 5.79384 5.56995 5.95822 5.36717 5.95822C5.16439 5.95822 5 5.79384 5 5.59105C5 5.14921 5.20524 4.73931 5.54643 4.44686C5.88588 4.15591 6.33568 4 6.79504 4H7.203C7.66235 4 8.11216 4.15591 8.4516 4.44686C8.7901 4.737 8.99478 5.14272 8.998 5.58056C9.01511 5.9214 8.92218 6.25881 8.73278 6.54292C8.54547 6.82388 8.27374 7.0378 7.95709 7.15401C7.79986 7.23213 7.6452 7.38501 7.53101 7.6134C7.41376 7.84791 7.35327 8.1355 7.36585 8.43119C7.37447 8.63379 7.21722 8.80501 7.01462 8.81363C6.81202 8.82225 6.6408 8.665 6.63218 8.4624C6.61472 8.05177 6.69713 7.63914 6.8742 7.285C7.05101 6.93139 7.32045 6.64127 7.65908 6.4825C7.67019 6.47729 7.68156 6.47264 7.69314 6.46857C7.86834 6.40696 8.01877 6.2901 8.12178 6.13558C8.22479 5.98106 8.27481 5.79726 8.26429 5.61185C8.2639 5.60492 8.2637 5.59799 8.2637 5.59105C8.2637 5.38371 8.16807 5.171 7.97371 5.00441C7.7776 4.83631 7.50104 4.73433 7.203 4.73433H6.79504ZM7.36638 10.0786C7.36638 9.87585 7.202 9.71147 6.99922 9.71147C6.79644 9.71147 6.63205 9.87585 6.63205 10.0786V10.0827C6.63205 10.2855 6.79644 10.4499 6.99922 10.4499C7.202 10.4499 7.36638 10.2855 7.36638 10.0827V10.0786Z" fill="white"/>
</svg>
