<svg width="20" height="20" viewBox="0 0 20 20" fill="#2B2B35" xmlns="http://www.w3.org/2000/svg">
  <path d="M8.81048 4.30171C9.69573 4.09765 10.6172 4.12535 11.4893 4.38234C12.3614 4.63936 13.157 5.11769 13.801 5.77416C13.8065 5.77976 13.8121 5.78527 13.8177 5.79069L15.7774 7.66667H13.3335C12.9193 7.66667 12.5835 8.00245 12.5835 8.41667C12.5835 8.83088 12.9193 9.16667 13.3335 9.16667H17.5002C17.9144 9.16667 18.2502 8.83088 18.2502 8.41667V4.25C18.2502 3.83579 17.9144 3.5 17.5002 3.5C17.0859 3.5 16.7502 3.83579 16.7502 4.25V6.5214L14.8633 4.71505C14.0432 3.88209 13.0288 3.27224 11.9133 2.94352C10.7939 2.61364 9.61033 2.578 8.47355 2.84005C7.33682 3.10208 6.28515 3.6529 5.41622 4.43973C4.54738 5.22647 3.88961 6.22341 3.50289 7.33678C3.36698 7.72806 3.574 8.15544 3.96528 8.29135C4.35656 8.42725 4.78394 8.22023 4.91984 7.82895C5.22472 6.95122 5.74235 6.168 6.42305 5.55162C7.10367 4.93531 7.92518 4.50579 8.81048 4.30171Z"/>
  <path d="M1.75 11.6667C1.75 11.2525 2.08579 10.9167 2.5 10.9167H6.66667C7.08088 10.9167 7.41667 11.2525 7.41667 11.6667C7.41667 12.0809 7.08088 12.4167 6.66667 12.4167H4.22255L6.18228 14.2928C6.18794 14.2982 6.19352 14.3037 6.19901 14.3093C6.84305 14.9658 7.63858 15.4441 8.51074 15.7011C9.38283 15.9581 10.3043 15.9858 11.1895 15.7818C12.0748 15.5777 12.8963 15.1482 13.577 14.5319C14.2577 13.9155 14.7753 13.1323 15.0802 12.2545C15.2161 11.8632 15.6434 11.6562 16.0347 11.7921C16.426 11.928 16.633 12.3554 16.4971 12.7467C16.1104 13.8601 15.4526 14.857 14.5838 15.6437C13.7148 16.4306 12.6632 16.9814 11.5265 17.2434C10.3897 17.5055 9.20615 17.4698 8.08673 17.14C6.97124 16.8112 5.95678 16.2014 5.13674 15.3684L3.25 13.5622V15.8334C3.25 16.2476 2.91421 16.5834 2.5 16.5834C2.08579 16.5834 1.75 16.2476 1.75 15.8334V11.6667Z"/>
</svg>
