<svg width="16" height="16" viewBox="0 0 16 16" fill="none" xmlns="http://www.w3.org/2000/svg">
<g clip-path="url(#clip0_1774_10567)">
<path fill-rule="evenodd" clip-rule="evenodd" d="M7.3999 2.63297C4.69993 2.93143 2.5999 5.22048 2.5999 8.00001C2.5999 10.9823 5.01756 13.4 7.9999 13.4C10.7794 13.4 13.0685 11.3 13.3669 8.60001H7.9999C7.66853 8.60001 7.3999 8.33138 7.3999 8.00001V2.63297ZM8.5999 2.63297V7.40001H13.3669C13.0903 4.89704 11.1029 2.90966 8.5999 2.63297ZM1.3999 8.00001C1.3999 4.35493 4.35482 1.40001 7.9999 1.40001C11.645 1.40001 14.5999 4.35493 14.5999 8.00001C14.5999 11.6451 11.645 14.6 7.9999 14.6C4.35482 14.6 1.3999 11.6451 1.3999 8.00001Z" fill="#2B2B35"/>
</g>
<defs>
<clipPath id="clip0_1774_10567">
<rect width="16" height="16" fill="white"/>
</clipPath>
</defs>
</svg>
