<svg width="14" height="12" viewBox="0 0 14 12" fill="none" xmlns="http://www.w3.org/2000/svg">
<path fill-rule="evenodd" clip-rule="evenodd" d="M9.36376 1.33334C9.36376 1.16598 9.49943 1.03031 9.66679 1.03031H12.3335C12.5008 1.03031 12.6365 1.16598 12.6365 1.33334V5.27273H9.36375L9.36376 1.33334ZM9.36375 6H12.6365V10.6667C12.6365 10.834 12.5008 10.9697 12.3335 10.9697H9.36375L9.36375 6ZM8.63648 3.01497C8.54067 2.98553 8.43891 2.96969 8.33344 2.96969H5.66678C5.09776 2.96969 4.63647 3.43097 4.63647 3.99999L4.63648 5.68165C4.54067 5.65221 4.43891 5.63636 4.33344 5.63636H1.66678C1.09776 5.63636 0.636475 6.09765 0.636475 6.66667V10.6667C0.636475 11.2357 1.09776 11.697 1.66678 11.697H5.00011L5.00277 11.697H9.00011V11.697H12.3335C12.9025 11.697 13.3638 11.2357 13.3638 10.6667V1.33334C13.3638 0.764322 12.9025 0.30304 12.3335 0.30304H9.66679C9.09776 0.30304 8.63648 0.764322 8.63648 1.33334V3.01497ZM5.66678 3.69696C5.49942 3.69696 5.36375 3.83263 5.36375 3.99999L5.36375 6.66667L5.36375 7.45455H8.63647V3.99999C8.63647 3.83263 8.5008 3.69696 8.33344 3.69696H5.66678ZM8.63647 8.18182H5.36375L5.36375 10.9697H8.63647V8.18182ZM4.63647 6.66667V10.9697H1.66678C1.49942 10.9697 1.36375 10.834 1.36375 10.6667V6.66667C1.36375 6.49931 1.49942 6.36364 1.66678 6.36364H4.33344C4.5008 6.36364 4.63647 6.49931 4.63647 6.66667Z" fill="#2B2B35"/>
</svg>
