<svg xmlns="http://www.w3.org/2000/svg" width="12" height="12" viewBox="0 0 12 12" fill="none">
  <path fill-rule="evenodd" clip-rule="evenodd" d="M1.99998 1.26641C1.59497 1.26641 1.26665 1.59473 1.26665 1.99974V4.06641H4.06665V1.26641H1.99998ZM4.66665 0.0664062H1.99998C0.932233 0.0664062 0.0666504 0.931989 0.0666504 1.99974V4.66641V9.99974C0.0666504 11.0675 0.932233 11.9331 1.99998 11.9331H4.66665H9.99998C11.0677 11.9331 11.9333 11.0675 11.9333 9.99974V4.66641V1.99974C11.9333 0.931989 11.0677 0.0664062 9.99998 0.0664062H4.66665ZM5.26665 1.26641V4.06641H10.7333V1.99974C10.7333 1.59473 10.405 1.26641 9.99998 1.26641H5.26665ZM4.06665 5.26641H1.26665V9.99974C1.26665 10.4047 1.59497 10.7331 1.99998 10.7331H4.06665V5.26641ZM5.26665 10.7331V5.26641H10.7333V9.99974C10.7333 10.4047 10.405 10.7331 9.99998 10.7331H5.26665Z" fill="#2B2B35"/>
</svg>
