<svg width="16" height="16" viewBox="0 0 16 16" fill="none" xmlns="http://www.w3.org/2000/svg">
<path fill-rule="evenodd" clip-rule="evenodd" d="M10.8717 5.81878C10.9838 5.81259 11.0932 5.85425 11.1726 5.93332L14.0662 8.8162C14.1402 8.88993 14.1818 8.98992 14.1818 9.09418V12.6978C14.1818 12.9149 14.0051 13.0909 13.7872 13.0909H2.2127C2.06718 13.0909 1.93347 13.0111 1.86481 12.8833C1.79614 12.7555 1.80367 12.6004 1.88439 12.4797L4.778 8.1554C4.88839 7.99043 5.10479 7.93318 5.28278 8.02184L7.89109 9.32116L10.5854 5.96572C10.6555 5.8784 10.7597 5.82496 10.8717 5.81878ZM10.9263 6.79985L8.30805 10.0605C8.19182 10.2052 7.98989 10.2494 7.82347 10.1665L5.24141 8.88028L2.94999 12.3047H13.3926V9.25702L10.9263 6.79985Z" fill="#2B2B35"/>
<path fill-rule="evenodd" clip-rule="evenodd" d="M10.8757 1.45495C10.9864 1.44995 11.0942 1.49155 11.1726 1.56957L14.0662 4.44956C14.2203 4.60293 14.2203 4.85159 14.0662 5.00496C13.9121 5.15833 13.6622 5.15833 13.5082 5.00496L10.9201 2.42906L7.57967 6.41867C7.46245 6.55868 7.26385 6.60002 7.10008 6.51852L4.50101 5.2251L2.52839 7.84289C2.39764 8.0164 2.15031 8.05157 1.97597 7.92143C1.80163 7.79129 1.7663 7.54513 1.89706 7.37161L4.06726 4.49162C4.18168 4.33979 4.38883 4.29111 4.55939 4.376L7.17348 5.67689L10.5904 1.59585C10.6614 1.51109 10.7649 1.45995 10.8757 1.45495Z" fill="#2B2B35"/>
</svg>
