<svg width="16" height="16" viewBox="0 0 16 16" fill="none" xmlns="http://www.w3.org/2000/svg">
<path fill-rule="evenodd" clip-rule="evenodd" d="M3.52976 2.61083C3.30161 2.61083 3.1897 2.76704 3.1897 2.87465L3.1897 5.64827L7.75199 5.64827C7.98014 5.64827 8.09205 5.49206 8.09205 5.38445V2.87465C8.09205 2.76704 7.98013 2.61083 7.75199 2.61083L3.52976 2.61083ZM8.78224 5.64827C8.80632 5.56544 8.81932 5.4772 8.81932 5.38445V2.87465C8.81932 2.28919 8.30113 1.88356 7.75199 1.88356L3.52976 1.88356C2.98062 1.88356 2.46242 2.28919 2.46242 2.87465L2.4624 13.0359H2.82604C2.4624 13.0359 2.4624 13.0362 2.4624 13.0364L2.4624 13.0369L2.46241 13.038L2.46243 13.0403L2.46252 13.0455C2.4626 13.0493 2.46274 13.0536 2.46297 13.0585C2.46341 13.0681 2.4642 13.0799 2.46556 13.0936C2.46827 13.1209 2.47333 13.1562 2.48281 13.1971C2.50161 13.2781 2.53922 13.3867 2.61557 13.4964C2.78202 13.7355 3.07855 13.905 3.52974 13.905H10.5668C11.1159 13.905 11.6341 13.4993 11.6341 12.9139V10.4041C11.6341 10.3113 11.6211 10.2231 11.597 10.1402H13.3816C13.9308 10.1402 14.449 9.73461 14.449 9.14916V6.63936C14.449 6.05391 13.9308 5.64827 13.3816 5.64827L8.78224 5.64827ZM3.18968 13.0247C3.18998 13.0266 3.19047 13.0293 3.19126 13.0327C3.19445 13.0465 3.20082 13.0642 3.21244 13.0808L3.21273 13.0813C3.223 13.0961 3.27968 13.1777 3.52974 13.1777H6.18182V10.1402L3.18968 10.1402L3.18968 13.0247ZM3.18968 9.41298L9.09091 9.41297V6.37554L3.18969 6.37554L3.18968 9.41298ZM9.81818 6.37554V9.41297H13.3816C13.6098 9.41297 13.7217 9.25677 13.7217 9.14916V6.63936C13.7217 6.53175 13.6098 6.37555 13.3816 6.37555L9.81818 6.37554ZM6.90909 10.1402V13.1777H10.5668C10.7949 13.1777 10.9068 13.0215 10.9068 12.9139V10.4041C10.9068 10.2965 10.7949 10.1402 10.5668 10.1402L6.90909 10.1402Z" fill="#2B2B35"/>
</svg>
