<svg xmlns="http://www.w3.org/2000/svg" width="17" height="17" viewBox="0 0 17 17" fill="none" stroke="#2B2B35">
  <path d="M10.5 6.27499H10.5067" stroke-linecap="round" stroke-linejoin="round"/>
  <path d="M11.8334 3.60837H5.16675C4.06218 3.60837 3.16675 4.5038 3.16675 5.60837V12.275C3.16675 13.3796 4.06218 14.275 5.16675 14.275H11.8334C12.938 14.275 13.8334 13.3796 13.8334 12.275V5.60837C13.8334 4.5038 12.938 3.60837 11.8334 3.60837Z" stroke-linecap="round" stroke-linejoin="round"/>
  <path d="M3.16675 10.9416L5.83341 8.27498C6.13745 7.98242 6.48234 7.8284 6.83341 7.8284C7.18449 7.8284 7.52938 7.98242 7.83341 8.27498L11.1667 11.6083" stroke-linecap="round" stroke-linejoin="round"/>
  <path d="M9.83325 10.2751L10.4999 9.60839C10.804 9.31583 11.1488 9.1618 11.4999 9.1618C11.851 9.1618 12.1959 9.31583 12.4999 9.60839L13.8333 10.9417" stroke-linecap="round" stroke-linejoin="round"/>
</svg>
