<svg width="20" height="20" viewBox="0 0 20 20" fill="none" xmlns="http://www.w3.org/2000/svg">
<path d="M10 17.5C14.1421 17.5 17.5 14.1421 17.5 10C17.5 5.85786 14.1421 2.5 10 2.5C5.85786 2.5 2.5 5.85786 2.5 10C2.5 14.1421 5.85786 17.5 10 17.5Z" stroke="#0073E6" stroke-width="1.5" stroke-linecap="round" stroke-linejoin="round"/>
<path d="M8.33333 13.75L10 11.25M10 11.25L11.6667 13.75M10 11.25V9.58333M10 9.58333L12.5 8.75M10 9.58333L7.5 8.75" stroke="#0073E6" stroke-width="1.5" stroke-linecap="round" stroke-linejoin="round"/>
<path d="M9.99998 6.66671C10.2301 6.66671 10.4166 6.48016 10.4166 6.25004C10.4166 6.01992 10.2301 5.83337 9.99998 5.83337C9.76986 5.83337 9.58331 6.01992 9.58331 6.25004C9.58331 6.48016 9.76986 6.66671 9.99998 6.66671Z" fill="#0073E6" stroke="#0073E6" stroke-width="1.5" stroke-linecap="round" stroke-linejoin="round"/>
</svg>
