<svg width="17" height="18" viewBox="0 0 17 18" fill="none" xmlns="http://www.w3.org/2000/svg"><path fill-rule="evenodd" clip-rule="evenodd" d="M13.2871 0.806909C13.1987 0.770239 13.1017 0.75 13 0.75C12.8983 0.75 12.8013 0.770239 12.7129 0.806909C12.6245 0.843509 12.5416 0.897762 12.4697 0.96967L9.96967 3.46967C9.67678 3.76256 9.67678 4.23744 9.96967 4.53033C10.2626 4.82322 10.7374 4.82322 11.0303 4.53033L12.25 3.31066V7.33333C12.25 7.74755 12.5858 8.08333 13 8.08333C13.4142 8.08333 13.75 7.74755 13.75 7.33333V3.31066L14.9697 4.53033C15.2626 4.82322 15.7374 4.82322 16.0303 4.53033C16.3232 4.23744 16.3232 3.76256 16.0303 3.46967L13.5307 0.970068M13.2871 0.806909C13.3749 0.843239 13.4572 0.896963 13.5287 0.968082L13.2871 0.806909ZM2.75 6.75C2.35835 6.75 2.01937 6.81844 1.808 6.90903C1.78591 6.9185 1.76664 6.9276 1.75 6.93612V11.0639C1.76664 11.0724 1.78591 11.0815 1.808 11.091C2.01937 11.1816 2.35835 11.25 2.75 11.25H8C8.41421 11.25 8.75 11.5858 8.75 12C8.75 12.4142 8.41421 12.75 8 12.75H2.75C2.21339 12.75 1.66214 12.6604 1.21712 12.4697C0.994224 12.3742 0.771473 12.2419 0.593924 12.0582C0.413314 11.8714 0.25 11.5966 0.25 11.25V6.75C0.25 6.40338 0.413314 6.12864 0.593924 5.94177C0.771472 5.75807 0.994224 5.62584 1.21712 5.53031C1.66214 5.33959 2.21339 5.25 2.75 5.25H8C8.41421 5.25 8.75 5.58579 8.75 6C8.75 6.41421 8.41421 6.75 8 6.75H2.75ZM12.25 14.6893V10.6667C12.25 10.2525 12.5858 9.91675 13 9.91675C13.4142 9.91675 13.75 10.2525 13.75 10.6667V14.6893L14.9697 13.4697C15.2626 13.1768 15.7374 13.1768 16.0303 13.4697C16.3232 13.7626 16.3232 14.2374 16.0303 14.5303L13.5369 17.0238C13.4007 17.1634 13.2105 17.2501 13 17.2501C12.7896 17.2501 12.5994 17.1634 12.4632 17.0238L9.96967 14.5303C9.67678 14.2374 9.67678 13.7626 9.96967 13.4697C10.2626 13.1768 10.7374 13.1768 11.0303 13.4697L12.25 14.6893Z" fill="#2B2B35"/></svg>
