<svg width="20" height="20" viewBox="0 0 20 20" fill="none" xmlns="http://www.w3.org/2000/svg"><path fill-rule="evenodd" clip-rule="evenodd" d="M4.83989 4.83989C5.32436 4.35542 5.98144 4.08325 6.66658 4.08325H9.99992C10.4141 4.08325 10.7499 3.74747 10.7499 3.33325C10.7499 2.91904 10.4141 2.58325 9.99992 2.58325H6.66658C5.58362 2.58325 4.54501 3.01346 3.77923 3.77923C3.01346 4.54501 2.58325 5.58362 2.58325 6.66658V9.99992C2.58325 10.4141 2.91904 10.7499 3.33325 10.7499C3.74747 10.7499 4.08325 10.4141 4.08325 9.99992V6.66658C4.08325 5.98144 4.35542 5.32436 4.83989 4.83989ZM14.0833 3.33325C14.0833 2.91904 13.7475 2.58325 13.3333 2.58325C12.919 2.58325 12.5833 2.91904 12.5833 3.33325V3.34159C12.5833 3.7558 12.919 4.09159 13.3333 4.09159C13.7475 4.09159 14.0833 3.7558 14.0833 3.34159V3.33325ZM16.6667 2.58325C17.081 2.58325 17.4167 2.91904 17.4167 3.33325V3.34159C17.4167 3.7558 17.081 4.09159 16.6667 4.09159C16.2525 4.09159 15.9167 3.7558 15.9167 3.34159V3.33325C15.9167 2.91904 16.2525 2.58325 16.6667 2.58325ZM17.4167 6.66675C17.4167 6.25253 17.081 5.91675 16.6667 5.91675C16.2525 5.91675 15.9167 6.25253 15.9167 6.66675V6.67508C15.9167 7.08929 16.2525 7.42508 16.6667 7.42508C17.081 7.42508 17.4167 7.08929 17.4167 6.67508V6.66675ZM16.6667 9.25C17.081 9.25 17.4167 9.58579 17.4167 10V10.0083C17.4167 10.4225 17.081 10.7583 16.6667 10.7583C16.2525 10.7583 15.9167 10.4225 15.9167 10.0083V10C15.9167 9.58579 16.2525 9.25 16.6667 9.25ZM4.08325 13.3333C4.08325 12.919 3.74747 12.5833 3.33325 12.5833C2.91904 12.5833 2.58325 12.919 2.58325 13.3333V13.3416C2.58325 13.7558 2.91904 14.0916 3.33325 14.0916C3.74747 14.0916 4.08325 13.7558 4.08325 13.3416V13.3333ZM16.6667 12.5833C17.081 12.5833 17.4167 12.919 17.4167 13.3333V13.3416C17.4167 13.7558 17.081 14.0916 16.6667 14.0916C16.2525 14.0916 15.9167 13.7558 15.9167 13.3416V13.3333C15.9167 12.919 16.2525 12.5833 16.6667 12.5833ZM4.08325 16.6667C4.08325 16.2525 3.74747 15.9167 3.33325 15.9167C2.91904 15.9167 2.58325 16.2525 2.58325 16.6667V16.6751C2.58325 17.0893 2.91904 17.4251 3.33325 17.4251C3.74747 17.4251 4.08325 17.0893 4.08325 16.6751V16.6667ZM6.66675 15.9167C7.08096 15.9167 7.41675 16.2525 7.41675 16.6667V16.6751C7.41675 17.0893 7.08096 17.4251 6.66675 17.4251C6.25253 17.4251 5.91675 17.0893 5.91675 16.6751V16.6667C5.91675 16.2525 6.25253 15.9167 6.66675 15.9167ZM10.75 16.6667C10.75 16.2525 10.4142 15.9167 10 15.9167C9.58579 15.9167 9.25 16.2525 9.25 16.6667V16.6751C9.25 17.0893 9.58579 17.4251 10 17.4251C10.4142 17.4251 10.75 17.0893 10.75 16.6751V16.6667ZM13.3333 15.9167C13.7475 15.9167 14.0833 16.2525 14.0833 16.6667V16.6751C14.0833 17.0893 13.7475 17.4251 13.3333 17.4251C12.919 17.4251 12.5833 17.0893 12.5833 16.6751V16.6667C12.5833 16.2525 12.919 15.9167 13.3333 15.9167ZM17.4167 16.6667C17.4167 16.2525 17.081 15.9167 16.6667 15.9167C16.2525 15.9167 15.9167 16.2525 15.9167 16.6667V16.6751C15.9167 17.0893 16.2525 17.4251 16.6667 17.4251C17.081 17.4251 17.4167 17.0893 17.4167 16.6751V16.6667Z" fill="#2B2B35"/></svg>
