<svg width="20" height="20" viewBox="0 0 20 20" fill="none" xmlns="http://www.w3.org/2000/svg"><path fill-rule="evenodd" clip-rule="evenodd" d="M3.25 10C3.25 6.27208 6.27208 3.25 10 3.25C13.7279 3.25 16.75 6.27208 16.75 10C16.75 13.7279 13.7279 16.75 10 16.75C6.27208 16.75 3.25 13.7279 3.25 10ZM10 1.75C5.44365 1.75 1.75 5.44365 1.75 10C1.75 14.5563 5.44365 18.25 10 18.25C14.5563 18.25 18.25 14.5563 18.25 10C18.25 5.44365 14.5563 1.75 10 1.75ZM6.75 10C6.75 8.20507 8.20507 6.75 10 6.75C11.7949 6.75 13.25 8.20507 13.25 10C13.25 11.7949 11.7949 13.25 10 13.25C8.20507 13.25 6.75 11.7949 6.75 10ZM10 5.25C7.37665 5.25 5.25 7.37665 5.25 10C5.25 12.6234 7.37665 14.75 10 14.75C12.6234 14.75 14.75 12.6234 14.75 10C14.75 7.37665 12.6234 5.25 10 5.25Z" fill="#2B2B35"/></svg>
