<svg width="20" height="20" viewBox="0 0 20 20" fill="#2B2B35" xmlns="http://www.w3.org/2000/svg">
  <path fill-rule="evenodd" clip-rule="evenodd" d="M10.7495 3.33332C10.7495 2.91937 10.414 2.5838 10 2.5838C9.58606 2.5838 9.25049 2.91937 9.25049 3.33332V10.4131L6.82589 7.98851C6.53319 7.69581 6.05862 7.69581 5.76591 7.98851C5.47321 8.28122 5.47321 8.75578 5.76592 9.04849L9.46962 12.7522C9.59656 12.8791 9.75769 12.951 9.92337 12.9679C9.94857 12.9704 9.97413 12.9717 10 12.9717C10.2144 12.9717 10.4078 12.8817 10.5445 12.7373L14.2333 9.04849C14.526 8.75578 14.526 8.28122 14.2333 7.98851C13.9406 7.69581 13.466 7.69581 13.1733 7.98851L10.7495 10.4123V3.33332ZM3.33301 11.4727C3.74696 11.4727 4.08253 11.8083 4.08253 12.2222V15.1852C4.08253 15.3793 4.15965 15.5655 4.29692 15.7027C4.43419 15.84 4.62037 15.9171 4.81449 15.9171H15.1849C15.379 15.9171 15.5652 15.84 15.7024 15.7027C15.8397 15.5655 15.9168 15.3793 15.9168 15.1852V12.2222C15.9168 11.8083 16.2524 11.4727 16.6663 11.4727C17.0803 11.4727 17.4159 11.8083 17.4159 12.2222V15.1852C17.4159 15.7769 17.1808 16.3443 16.7624 16.7627C16.344 17.1811 15.7766 17.4162 15.1849 17.4162H4.81449C4.2228 17.4162 3.65533 17.1811 3.23694 16.7627C2.81855 16.3443 2.5835 15.7769 2.5835 15.1852V12.2222C2.5835 11.8083 2.91907 11.4727 3.33301 11.4727Z"/>
</svg>
