<svg xmlns="http://www.w3.org/2000/svg" version="1.1" width="16" height="16" viewBox="0 0 16 16"><g transform="matrix(1 0 0 1 8.27 8.27)" id="5UtkBztDgYdOBCMy9xKvi"><path style="stroke: none; stroke-width: 1; stroke-dasharray: none; stroke-linecap: butt; stroke-dashoffset: 0; stroke-linejoin: miter; stroke-miterlimit: 4; fill: rgb(0,115,230); fill-rule: nonzero; opacity: 1;" vector-effect="non-scaling-stroke"  transform=" translate(-3.33, -4.99)" d="M 2.46952 6.64844 L 2.46952 6.54687 C 2.47213 6.07552 2.5164 5.70052 2.60234 5.42187 C 2.69088 5.14323 2.81588 4.91927 2.97734 4.75 C 3.13879 4.57812 3.33541 4.42057 3.56718 4.27734 C 3.72603 4.17839 3.86796 4.07031 3.99296 3.95312 C 4.12056 3.83333 4.22083 3.70052 4.29374 3.55469 C 4.36666 3.40625 4.40312 3.24089 4.40312 3.05859 C 4.40312 2.85286 4.35494 2.67448 4.25859 2.52344 C 4.16223 2.3724 4.03202 2.25521 3.86796 2.17188 C 3.7065 2.08854 3.52551 2.04687 3.32499 2.04687 C 3.1401 2.04687 2.96431 2.08724 2.79765 2.16797 C 2.63359 2.24609 2.49687 2.36589 2.38749 2.52734 C 2.28072 2.6862 2.22083 2.88802 2.2078 3.13281 L 0.817179 3.13281 C 0.8302 2.63802 0.949992 2.22396 1.17655 1.89063 C 1.40572 1.55729 1.7078 1.30729 2.0828 1.14062 C 2.46041 0.973958 2.87708 0.890625 3.3328 0.890625 C 3.8302 0.890625 4.2677 0.977864 4.6453 1.15234 C 5.02551 1.32682 5.32109 1.57552 5.53202 1.89844 C 5.74556 2.21875 5.85234 2.59896 5.85234 3.03906 C 5.85234 3.33594 5.80416 3.60156 5.7078 3.83594 C 5.61405 4.07031 5.47994 4.27865 5.30546 4.46094 C 5.13098 4.64323 4.92395 4.80599 4.68437 4.94922 C 4.47343 5.07943 4.30025 5.21484 4.16484 5.35547 C 4.03202 5.49609 3.93307 5.66146 3.86796 5.85156 C 3.80546 6.03906 3.77291 6.27083 3.7703 6.54687 L 3.7703 6.64844 L 2.46952 6.64844 Z M 3.14921 9.08594 C 2.91484 9.08594 2.71301 9.0026 2.54374 8.83594 C 2.37447 8.66927 2.28984 8.46615 2.28984 8.22656 C 2.28984 7.99219 2.37447 7.79167 2.54374 7.625 C 2.71301 7.45833 2.91484 7.375 3.14921 7.375 C 3.38098 7.375 3.5815 7.45833 3.75077 7.625 C 3.92265 7.79167 4.00859 7.99219 4.00859 8.22656 C 4.00859 8.38542 3.96822 8.52995 3.88749 8.66016 C 3.80937 8.79036 3.7052 8.89453 3.57499 8.97266 C 3.44739 9.04818 3.30546 9.08594 3.14921 9.08594 Z" stroke-linecap="round" /></g><g transform="matrix(1 0 0 1 8.27 8.27)" id="tmIFrpMjqXCD9dj2awmGs"><circle style="stroke: rgb(0,115,230); stroke-width: 1; stroke-dasharray: none; stroke-linecap: butt; stroke-dashoffset: 0; stroke-linejoin: miter; stroke-miterlimit: 4; fill: none; fill-rule: nonzero; opacity: 1;" vector-effect="non-scaling-stroke"  cx="0" cy="0" r="7.5"/></g></svg>
