<svg width="32" height="32" viewBox="0 0 32 32" fill="none" xmlns="http://www.w3.org/2000/svg">
  <g clip-path="url(#clip0_917_15821)">
    <path fill-rule="evenodd" clip-rule="evenodd" d="M10.9998 10.083C10.9777 10.083 10.9565 10.0918 10.9409 10.1074C10.9253 10.123 10.9165 10.1442 10.9165 10.1663V21.833C10.9165 21.8551 10.9253 21.8763 10.9409 21.8919C10.9565 21.9076 10.9777 21.9163 10.9998 21.9163H14.3332C14.3553 21.9163 14.3765 21.9076 14.3921 21.8919C14.4077 21.8763 14.4165 21.8551 14.4165 21.833V10.1663C14.4165 10.1442 14.4077 10.123 14.3921 10.1074C14.3765 10.0918 14.3553 10.083 14.3332 10.083H10.9998ZM10.9998 8.58301H14.3332C14.7531 8.58301 15.1558 8.74982 15.4528 9.04676C15.7497 9.34369 15.9165 9.74641 15.9165 10.1663V21.833C15.9165 22.2529 15.7497 22.6557 15.4528 22.9526C15.1558 23.2495 14.7531 23.4163 14.3332 23.4163H10.9998C10.5799 23.4163 10.1772 23.2495 9.88025 22.9526C9.58332 22.6557 9.4165 22.2529 9.4165 21.833V10.1663C9.4165 9.74641 9.58332 9.34369 9.88025 9.04676C10.1772 8.74982 10.5799 8.58301 10.9998 8.58301ZM17.7499 16C17.7499 15.5858 18.0857 15.25 18.4999 15.25H19.4165V14.333C19.4165 13.9188 19.7523 13.583 20.1665 13.583C20.5807 13.583 20.9165 13.9188 20.9165 14.333V15.25H21.8332C22.2474 15.25 22.5832 15.5858 22.5832 16C22.5832 16.4142 22.2474 16.75 21.8332 16.75H20.9165V17.6663C20.9165 18.0806 20.5807 18.4163 20.1665 18.4163C19.7523 18.4163 19.4165 18.0806 19.4165 17.6663V16.75H18.4999C18.0857 16.75 17.7499 16.4142 17.7499 16Z" fill="#2B2B35"/>
  </g>
  <defs>
    <clipPath id="clip0_917_15821">
      <rect width="20" height="20" fill="white" transform="translate(6 6)"/>
    </clipPath>
  </defs>
</svg>
