<svg width="32" height="32" viewBox="0 0 32 32" fill="none" xmlns="http://www.w3.org/2000/svg">
  <g clip-path="url(#clip0_917_15716)">
    <path fill-rule="evenodd" clip-rule="evenodd" d="M10.1668 10.917C10.1447 10.917 10.1235 10.9258 10.1079 10.9414C10.0923 10.957 10.0835 10.9782 10.0835 11.0003V14.3337C10.0835 14.3558 10.0923 14.377 10.1079 14.3926C10.1235 14.4082 10.1447 14.417 10.1668 14.417H21.8335C21.8556 14.417 21.8768 14.4082 21.8924 14.3926C21.908 14.377 21.9168 14.3558 21.9168 14.3337V11.0003C21.9168 10.9782 21.908 10.957 21.8924 10.9414C21.8768 10.9258 21.8556 10.917 21.8335 10.917H10.1668ZM9.04724 9.88074C9.34418 9.58381 9.7469 9.41699 10.1668 9.41699H21.8335C22.2534 9.41699 22.6561 9.58381 22.9531 9.88074C23.25 10.1777 23.4168 10.5804 23.4168 11.0003V14.3337C23.4168 14.7536 23.25 15.1563 22.9531 15.4532C22.6561 15.7502 22.2534 15.917 21.8335 15.917H10.1668C9.7469 15.917 9.34418 15.7502 9.04724 15.4532C8.75031 15.1563 8.5835 14.7536 8.5835 14.3337V11.0003C8.5835 10.5804 8.75031 10.1777 9.04724 9.88074ZM16.0001 17.75C16.4143 17.75 16.7501 18.0858 16.7501 18.5V19.417H17.6668C18.081 19.417 18.4168 19.7528 18.4168 20.167C18.4168 20.5812 18.081 20.917 17.6668 20.917H16.7501V21.8333C16.7501 22.2475 16.4143 22.5833 16.0001 22.5833C15.5859 22.5833 15.2501 22.2475 15.2501 21.8333V20.917H14.3335C13.9193 20.917 13.5835 20.5812 13.5835 20.167C13.5835 19.7528 13.9193 19.417 14.3335 19.417H15.2501V18.5C15.2501 18.0858 15.5859 17.75 16.0001 17.75Z" fill="#2B2B35"/>
  </g>
  <defs>
    <clipPath id="clip0_917_15716">
      <rect width="20" height="20" fill="white" transform="translate(6 6)"/>
    </clipPath>
  </defs>
</svg>
