<svg width="32" height="32" viewBox="0 0 32 32" fill="none" xmlns="http://www.w3.org/2000/svg">
  <g clip-path="url(#clip0_917_15828)">
    <path fill-rule="evenodd" clip-rule="evenodd" d="M17.6668 10.083C17.6447 10.083 17.6235 10.0918 17.6079 10.1074C17.5923 10.123 17.5835 10.1442 17.5835 10.1663V21.833C17.5835 21.8551 17.5923 21.8763 17.6079 21.8919C17.6235 21.9076 17.6447 21.9163 17.6668 21.9163H21.0002C21.0223 21.9163 21.0435 21.9076 21.0591 21.8919C21.0747 21.8763 21.0835 21.8551 21.0835 21.833V10.1663C21.0835 10.1442 21.0747 10.123 21.0591 10.1074C21.0435 10.0918 21.0223 10.083 21.0002 10.083H17.6668ZM17.6668 8.58301H21.0002C21.4201 8.58301 21.8228 8.74982 22.1197 9.04676C22.4167 9.34369 22.5835 9.74642 22.5835 10.1663V21.833C22.5835 22.2529 22.4167 22.6557 22.1197 22.9526C21.8228 23.2495 21.4201 23.4163 21.0002 23.4163H17.6668C17.2469 23.4163 16.8442 23.2495 16.5472 22.9526C16.2503 22.6557 16.0835 22.2529 16.0835 21.833V10.1663C16.0835 9.74641 16.2503 9.34369 16.5472 9.04676C16.8442 8.74982 17.2469 8.58301 17.6668 8.58301ZM9.41699 16C9.41699 15.5858 9.75278 15.25 10.167 15.25H11.0835V14.333C11.0835 13.9188 11.4193 13.583 11.8335 13.583C12.2477 13.583 12.5835 13.9188 12.5835 14.333V15.25H13.5003C13.9145 15.25 14.2503 15.5858 14.2503 16C14.2503 16.4142 13.9145 16.75 13.5003 16.75H12.5835V17.6663C12.5835 18.0806 12.2477 18.4163 11.8335 18.4163C11.4193 18.4163 11.0835 18.0806 11.0835 17.6663V16.75H10.167C9.75278 16.75 9.41699 16.4142 9.41699 16Z" fill="#2B2B35"/>
  </g>
  <defs>
    <clipPath id="clip0_917_15828">
      <rect width="20" height="20" fill="white" transform="translate(6 6)"/>
    </clipPath>
  </defs>
</svg>
