<svg width="32" height="32" viewBox="0 0 32 32" fill="none" xmlns="http://www.w3.org/2000/svg">
  <g clip-path="url(#clip0_917_15730)">
    <path fill-rule="evenodd" clip-rule="evenodd" d="M16.0001 9.41699C16.4143 9.41699 16.7501 9.75278 16.7501 10.167V11.083H17.6668C18.081 11.083 18.4168 11.4188 18.4168 11.833C18.4168 12.2472 18.081 12.583 17.6668 12.583H16.7501V13.5003C16.7501 13.9145 16.4143 14.2503 16.0001 14.2503C15.5859 14.2503 15.2501 13.9145 15.2501 13.5003V12.583H14.3335C13.9193 12.583 13.5835 12.2472 13.5835 11.833C13.5835 11.4188 13.9193 11.083 14.3335 11.083H15.2501V10.167C15.2501 9.75278 15.5859 9.41699 16.0001 9.41699ZM10.1668 17.583C10.1447 17.583 10.1235 17.5918 10.1079 17.6074C10.0923 17.623 10.0835 17.6442 10.0835 17.6663V20.9997C10.0835 21.0218 10.0923 21.043 10.1079 21.0586C10.1235 21.0742 10.1447 21.083 10.1668 21.083H21.8335C21.8556 21.083 21.8768 21.0742 21.8924 21.0586C21.908 21.043 21.9168 21.0218 21.9168 20.9997V17.6663C21.9168 17.6442 21.908 17.623 21.8924 17.6074C21.8768 17.5918 21.8556 17.583 21.8335 17.583H10.1668ZM9.04724 16.5468C9.34418 16.2498 9.7469 16.083 10.1668 16.083H21.8335C22.2534 16.083 22.6561 16.2498 22.9531 16.5468C23.25 16.8437 23.4168 17.2464 23.4168 17.6663V20.9997C23.4168 21.4196 23.25 21.8223 22.9531 22.1193C22.6561 22.4162 22.2534 22.583 21.8335 22.583H10.1668C9.7469 22.583 9.34418 22.4162 9.04724 22.1193C8.75031 21.8223 8.5835 21.4196 8.5835 20.9997V17.6663C8.5835 17.2464 8.75031 16.8437 9.04724 16.5468Z" fill="#2B2B35"/>
  </g>
  <defs>
    <clipPath id="clip0_917_15730">
      <rect width="20" height="20" fill="white" transform="translate(6 6)"/>
    </clipPath>
  </defs>
</svg>
