<svg width="14" height="14" viewBox="0 0 14 14" fill="none" xmlns="http://www.w3.org/2000/svg">
<path fill-rule="evenodd" clip-rule="evenodd" d="M6.9999 1.5999C4.01757 1.5999 1.5999 4.01757 1.5999 6.9999C1.5999 9.98224 4.01757 12.3999 6.9999 12.3999C9.98224 12.3999 12.3999 9.98224 12.3999 6.9999C12.3999 4.01757 9.98224 1.5999 6.9999 1.5999ZM0.399902 6.9999C0.399902 3.35482 3.35482 0.399902 6.9999 0.399902C10.645 0.399902 13.5999 3.35482 13.5999 6.9999C13.5999 10.645 10.645 13.5999 6.9999 13.5999C3.35482 13.5999 0.399902 10.645 0.399902 6.9999ZM6.1999 4.3333C6.1999 3.89147 6.55807 3.5333 6.9999 3.5333H7.0059C7.44773 3.5333 7.8059 3.89147 7.8059 4.3333C7.8059 4.77513 7.44773 5.1333 7.0059 5.1333H6.9999C6.55807 5.1333 6.1999 4.77513 6.1999 4.3333ZM6.3333 6.3999C6.00193 6.3999 5.7333 6.66853 5.7333 6.9999C5.7333 7.33127 6.00193 7.5999 6.3333 7.5999H6.39997V9.66657C6.39997 9.99794 6.6686 10.2666 6.99997 10.2666H7.66663C7.998 10.2666 8.26663 9.99794 8.26663 9.66657C8.26663 9.3352 7.998 9.06657 7.66663 9.06657H7.59997V6.9999C7.59997 6.66853 7.33134 6.3999 6.99997 6.3999H6.3333Z" fill="#0073E6"/>
</svg>
