<svg width="20" height="20" viewBox="0 0 20 20" fill="none" xmlns="http://www.w3.org/2000/svg">
<path fill-rule="evenodd" clip-rule="evenodd" d="M11.6855 3.41626H14.1667C14.581 3.41626 14.9167 3.75205 14.9167 4.16626C14.9167 4.58047 14.581 4.91626 14.1667 4.91626H12.2325L9.32764 15.0833H10.8333C11.2475 15.0833 11.5833 15.419 11.5833 15.8333C11.5833 16.2475 11.2475 16.5833 10.8333 16.5833H5.83325C5.41904 16.5833 5.08325 16.2475 5.08325 15.8333C5.08325 15.419 5.41904 15.0833 5.83325 15.0833H7.76761L10.6725 4.91626H9.16675C8.75253 4.91626 8.41675 4.58047 8.41675 4.16626C8.41675 3.75205 8.75253 3.41626 9.16675 3.41626H11.6473C11.66 3.41594 11.6727 3.41593 11.6855 3.41626Z" fill="#2B2B35"/>
</svg>
