<svg width="20" height="20" viewBox="0 0 20 20" fill="none" xmlns="http://www.w3.org/2000/svg">
<path fill-rule="evenodd" clip-rule="evenodd" d="M13.7499 2.55371C12.7696 2.55371 11.8294 2.94314 11.1363 3.63633L10.7196 4.05299C10.4267 4.34589 10.4267 4.82076 10.7196 5.11365C11.0125 5.40655 11.4874 5.40655 11.7802 5.11365L12.1969 4.69699C12.6088 4.2851 13.1674 4.05371 13.7499 4.05371C14.3324 4.05371 14.891 4.2851 15.3029 4.69699C15.7148 5.10887 15.9462 5.6675 15.9462 6.24999C15.9462 6.83248 15.7148 7.39111 15.3029 7.80299L11.9696 11.1363L11.9696 11.1363L11.9642 11.1418C11.7625 11.3477 11.5217 11.5112 11.2559 11.6229C10.9902 11.7346 10.7048 11.7921 10.4166 11.7921C10.1283 11.7921 9.84298 11.7346 9.57724 11.6229C9.31149 11.5112 9.0707 11.3477 8.86897 11.1418C8.57908 10.8459 8.10423 10.8411 7.80836 11.1309C7.51249 11.4208 7.50765 11.8957 7.79754 12.1915C8.13894 12.54 8.54643 12.8168 8.99615 13.0058C9.44587 13.1947 9.92877 13.2921 10.4166 13.2921C10.9044 13.2921 11.3873 13.1947 11.837 13.0058C12.2855 12.8173 12.692 12.5415 13.0328 12.1945L16.3636 8.86365C17.0568 8.17047 17.4462 7.2303 17.4462 6.24999C17.4462 5.26968 17.0568 4.32951 16.3636 3.63633C15.6704 2.94314 14.7302 2.55371 13.7499 2.55371ZM9.58332 6.70801C9.09551 6.70801 8.6126 6.80535 8.16288 6.99432C7.71441 7.18277 7.30793 7.45858 6.96711 7.80565L3.63633 11.1364C2.94314 11.8296 2.55371 12.7698 2.55371 13.7501C2.55371 14.7304 2.94314 15.6706 3.63633 16.3638C4.32951 17.0569 5.26968 17.4464 6.24999 17.4464C7.2303 17.4464 8.17047 17.0569 8.86365 16.3638L9.28032 15.9471C9.57321 15.6542 9.57321 15.1793 9.28032 14.8864C8.98743 14.5935 8.51255 14.5935 8.21966 14.8864L7.80299 15.3031C7.39111 15.715 6.83248 15.9464 6.24999 15.9464C5.6675 15.9464 5.10887 15.715 4.69699 15.3031C4.2851 14.8912 4.05371 14.3326 4.05371 13.7501C4.05371 13.1676 4.2851 12.609 4.69699 12.1971L8.03032 8.86376L8.03035 8.86379L8.0357 8.85832C8.23744 8.65243 8.47823 8.48886 8.74397 8.37719C9.00972 8.26553 9.29507 8.20801 9.58332 8.20801C9.87157 8.20801 10.1569 8.26553 10.4227 8.37719C10.6884 8.48886 10.9292 8.65243 11.1309 8.85832C11.4208 9.15419 11.8957 9.15904 12.1915 8.86915C12.4874 8.57926 12.4923 8.10441 12.2024 7.80854C11.861 7.46011 11.4535 7.18329 11.0038 6.99432C10.554 6.80535 10.0711 6.70801 9.58332 6.70801Z" fill="#2B2B35"/>
</svg>
