<svg width="16" height="16" viewBox="0 0 16 16" fill="none" xmlns="http://www.w3.org/2000/svg">
<path d="M11.3333 7.33301H4.66659C3.93021 7.33301 3.33325 7.92996 3.33325 8.66634V12.6663C3.33325 13.4027 3.93021 13.9997 4.66659 13.9997H11.3333C12.0696 13.9997 12.6666 13.4027 12.6666 12.6663V8.66634C12.6666 7.92996 12.0696 7.33301 11.3333 7.33301Z" stroke="#0082FF" stroke-width="1.5" stroke-linecap="round" stroke-linejoin="round"/>
<path d="M7.99992 11.3333C8.36811 11.3333 8.66659 11.0349 8.66659 10.6667C8.66659 10.2985 8.36811 10 7.99992 10C7.63173 10 7.33325 10.2985 7.33325 10.6667C7.33325 11.0349 7.63173 11.3333 7.99992 11.3333Z" fill="#0082FF"/>
<path d="M5.33325 7.33333V4.66667C5.33325 3.95942 5.6142 3.28115 6.1143 2.78105C6.6144 2.28095 7.29267 2 7.99992 2C8.70716 2 9.38544 2.28095 9.88554 2.78105C10.3856 3.28115 10.6666 3.95942 10.6666 4.66667V7.33333" stroke="#0082FF" stroke-width="1.5" stroke-linecap="round" stroke-linejoin="round"/>
</svg>
