<svg width="20" height="20" viewBox="0 0 20 20" fill="none" xmlns="http://www.w3.org/2000/svg">
<path fill-rule="evenodd" clip-rule="evenodd" d="M3.89589 4.0472H3.86389L3.31989 4.2776L3.19189 3.8168L3.99189 3.5H4.53589V6.1208H3.89589V4.0472ZM8 4.25C7.58579 4.25 7.25 4.58579 7.25 5C7.25 5.41421 7.58579 5.75 8 5.75H17C17.4142 5.75 17.75 5.41421 17.75 5C17.75 4.58579 17.4142 4.25 17 4.25H8ZM3.992 10.66L4.248 10.4584C4.664 10.1128 5.016 9.7672 5.016 9.3352C5.016 8.8456 4.664 8.5 3.992 8.5C3.608 8.5 3.256 8.6152 3.032 8.7592L3.224 9.1912C3.256 9.17968 3.29056 9.16586 3.32742 9.15111C3.47488 9.09213 3.6592 9.0184 3.864 9.0184C4.216 9.0184 4.344 9.1912 4.344 9.3928C4.344 9.7096 4.024 9.9976 3.384 10.516L3 10.8328V11.2072H5.08V10.6888L3.992 10.66ZM4.952 14.1624C4.952 14.4216 4.76 14.652 4.408 14.7672C4.76 14.8248 5.048 15.0552 5.048 15.4008C5.048 15.8616 4.6 16.2072 3.864 16.2072C3.48 16.2072 3.16 16.1208 3 16.0344L3.128 15.5736C3.256 15.6312 3.512 15.7464 3.8 15.7464C4.152 15.7464 4.344 15.6024 4.344 15.4008C4.344 15.1416 4.056 15.0264 3.768 15.0264H3.48V14.5944H3.736C3.96 14.5656 4.248 14.508 4.248 14.2776C4.248 14.1048 4.12 13.9896 3.832 13.9896C3.608 13.9896 3.352 14.076 3.224 14.1336L3.096 13.7016C3.256 13.5864 3.608 13.5 3.992 13.5C4.6 13.5 4.952 13.8168 4.952 14.1624ZM7.25 10C7.25 9.58579 7.58579 9.25 8 9.25H17C17.4142 9.25 17.75 9.58579 17.75 10C17.75 10.4142 17.4142 10.75 17 10.75H8C7.58579 10.75 7.25 10.4142 7.25 10ZM8 14.25C7.58579 14.25 7.25 14.5858 7.25 15C7.25 15.4142 7.58579 15.75 8 15.75L17 15.75C17.4142 15.75 17.75 15.4142 17.75 15C17.75 14.5858 17.4142 14.25 17 14.25L8 14.25Z" fill="#2B2B35"/>
</svg>
