<svg width="20" height="20" viewBox="0 0 20 20" fill="none" xmlns="http://www.w3.org/2000/svg">
<rect x="2" y="2.99988" width="2.36364" height="2.36364" rx="0.484848" fill="#2B2B35"/>
<rect x="2" y="7.54523" width="2.36364" height="2.36364" rx="0.484848" fill="#2B2B35"/>
<rect x="2" y="12.0907" width="2.36364" height="2.36364" rx="0.484848" fill="#2B2B35"/>
<rect opacity="0.85" x="4.27274" y="5.24219" width="2.36364" height="2.36364" rx="0.484848" fill="#2B2B35"/>
<rect opacity="0.85" x="4.27274" y="9.81793" width="2.36364" height="2.36364" rx="0.484848" fill="#2B2B35"/>
<rect opacity="0.85" x="4.27274" y="14.3634" width="2.36364" height="2.36364" rx="0.484848" fill="#2B2B35"/>
<rect opacity="0.75" x="6.54544" y="2.99976" width="2.36364" height="2.36364" rx="0.484848" fill="#2B2B35"/>
<rect opacity="0.75" x="6.54544" y="7.54523" width="2.36364" height="2.36364" rx="0.484848" fill="#2B2B35"/>
<rect opacity="0.75" x="6.54544" y="12.0907" width="2.36364" height="2.36364" rx="0.484848" fill="#2B2B35"/>
<rect opacity="0.6" x="8.81818" y="5.24219" width="2.36364" height="2.36364" rx="0.484848" fill="#2B2B35"/>
<rect opacity="0.6" x="8.81818" y="9.81793" width="2.36364" height="2.36364" rx="0.484848" fill="#2B2B35"/>
<rect opacity="0.6" x="8.81818" y="14.3634" width="2.36364" height="2.36364" rx="0.484848" fill="#2B2B35"/>
<rect opacity="0.45" x="11.0909" y="2.99976" width="2.36364" height="2.36364" rx="0.484848" fill="#2B2B35"/>
<rect opacity="0.45" x="11.0909" y="7.54523" width="2.36364" height="2.36364" rx="0.484848" fill="#2B2B35"/>
<rect opacity="0.45" x="11.0909" y="12.0907" width="2.36364" height="2.36364" rx="0.484848" fill="#2B2B35"/>
<rect opacity="0.3" x="13.3636" y="5.24219" width="2.36364" height="2.36364" rx="0.484848" fill="#2B2B35"/>
<rect opacity="0.3" x="13.3636" y="9.81793" width="2.36364" height="2.36364" rx="0.484848" fill="#2B2B35"/>
<rect opacity="0.3" x="13.3636" y="14.3634" width="2.36364" height="2.36364" rx="0.484848" fill="#2B2B35"/>
<rect opacity="0.15" x="15.6364" y="2.99976" width="2.36364" height="2.36364" rx="0.484848" fill="#2B2B35"/>
<rect opacity="0.15" x="15.6364" y="7.54523" width="2.36364" height="2.36364" rx="0.484848" fill="#2B2B35"/>
<rect opacity="0.15" x="15.6364" y="12.0907" width="2.36364" height="2.36364" rx="0.484848" fill="#2B2B35"/>
</svg>
