

<svg xmlns="http://www.w3.org/2000/svg" version="1.1" width="16" height="16" viewBox="0 0 16 16"><g transform="matrix(1.23 0 0 1.23 8.01 5.18)" id="nXp-HJkGz7VZJhyvNYdZj"><path style="stroke: currentColor; stroke-width: 1.5; stroke-dasharray: none; stroke-linecap: round; stroke-dashoffset: 0; stroke-linejoin: round; stroke-miterlimit: 4; fill: none; fill-rule: nonzero; opacity: 1;" vector-effect="non-scaling-stroke"  transform=" translate(-1.19, -1.33)" d="M 1.18652 1.33334 L 1.19319 1.33334" stroke-linecap="round" /></g><g transform="matrix(1.23 0 0 1.23 8.01 8.01)" id="s8VK51TFjXIeJyWtSDyf4"><path style="stroke: currentColor; stroke-width: 1; stroke-dasharray: none; stroke-linecap: round; stroke-dashoffset: 0; stroke-linejoin: round; stroke-miterlimit: 4; fill: none; fill-rule: nonzero; opacity: 1;" vector-effect="non-scaling-stroke"  transform=" translate(-7.19, -7)" d="M 7.18652 13 C 10.5002 13 13.1865 10.3137 13.1865 7 C 13.1865 3.68629 10.5002 1 7.18652 1 C 3.87281 1 1.18652 3.68629 1.18652 7 C 1.18652 10.3137 3.87281 13 7.18652 13 Z" stroke-linecap="round" /></g><g transform="matrix(1.23 0 0 1.23 8.01 9.51)" id="FIjbe-a2CD4qaLy8UZRN2"><path style="stroke: currentColor; stroke-width: 1; stroke-dasharray: none; stroke-linecap: round; stroke-dashoffset: 0; stroke-linejoin: round; stroke-miterlimit: 4; fill: none; fill-rule: nonzero; opacity: 1;" vector-effect="non-scaling-stroke"  transform=" translate(-1.19, -2.33)" d="M 0.52002 1 L 1.18669 1 L 1.18669 3.66667 L 1.85335 3.66667" stroke-linecap="round"/></g></svg>
