<svg width="17" height="16" viewBox="0 0 17 16" fill="none" xmlns="http://www.w3.org/2000/svg">
<path fill-rule="evenodd" clip-rule="evenodd" d="M11.5498 2.04297C10.7264 2.04297 9.93663 2.35451 9.35436 2.90906L9.00436 3.24239C8.75833 3.47671 8.75833 3.85661 9.00436 4.09092C9.25039 4.32524 9.64928 4.32524 9.89531 4.09092L10.2453 3.75759C10.5913 3.42808 11.0605 3.24297 11.5498 3.24297C12.0391 3.24297 12.5084 3.42808 12.8544 3.75759C13.2003 4.08709 13.3947 4.534 13.3947 4.99999C13.3947 5.46598 13.2003 5.91289 12.8544 6.24239L10.0544 8.90906L10.0543 8.90904L10.0498 8.91341C9.88038 9.07813 9.67811 9.20898 9.45489 9.29832C9.23166 9.38765 8.99197 9.43366 8.74983 9.43366C8.5077 9.43366 8.26801 9.38765 8.04478 9.29832C7.82156 9.20898 7.61929 9.07813 7.44983 8.91341C7.20633 8.67672 6.80745 8.67284 6.55893 8.90475C6.3104 9.13666 6.30633 9.51654 6.54983 9.75324C6.83661 10.032 7.1789 10.2534 7.55667 10.4046C7.93443 10.5558 8.34007 10.6337 8.74983 10.6337C9.1596 10.6337 9.56524 10.5558 9.943 10.4046C10.3197 10.2539 10.6611 10.0332 10.9474 9.75557L13.7453 7.09092C14.3276 6.53637 14.6547 5.78424 14.6547 4.99999C14.6547 4.21574 14.3276 3.46361 13.7453 2.90906C13.163 2.35451 12.3733 2.04297 11.5498 2.04297ZM8.04989 5.36641C7.64013 5.36641 7.23449 5.44428 6.85672 5.59546C6.48 5.74622 6.13856 5.96686 5.85227 6.24452L3.05442 8.90915C2.47214 9.4637 2.14502 10.2158 2.14502 11.0001C2.14502 11.7843 2.47214 12.5365 3.05442 13.091C3.63669 13.6456 4.42643 13.9571 5.24989 13.9571C6.07336 13.9571 6.86309 13.6456 7.44537 13.091L7.79537 12.7577C8.0414 12.5234 8.0414 12.1435 7.79537 11.9091C7.54934 11.6748 7.15045 11.6748 6.90442 11.9091L6.55442 12.2425C6.20844 12.572 5.73918 12.7571 5.24989 12.7571C4.7606 12.7571 4.29135 12.572 3.94537 12.2425C3.59939 11.913 3.40502 11.4661 3.40502 11.0001C3.40502 10.5341 3.59939 10.0872 3.94537 9.75768L6.74537 7.09101L6.74539 7.09103L6.74989 7.08666C6.91935 6.92194 7.12161 6.79109 7.34484 6.70175C7.56806 6.61242 7.80776 6.56641 8.04989 6.56641C8.29202 6.56641 8.53172 6.61242 8.75495 6.70175C8.97817 6.79109 9.18044 6.92194 9.34989 7.08666C9.5934 7.32335 9.99227 7.32723 10.2408 7.09532C10.4893 6.86341 10.4934 6.48353 10.2499 6.24683C9.96312 5.96808 9.62083 5.74664 9.24306 5.59546C8.8653 5.44428 8.45965 5.36641 8.04989 5.36641Z" fill="white"/>
</svg>
