<svg width="20" height="20" viewBox="0 0 20 20" fill="none" xmlns="http://www.w3.org/2000/svg"><path d="M6.5 7.5C7.05228 7.5 7.5 7.05228 7.5 6.5C7.5 5.94772 7.05228 5.5 6.5 5.5C5.94772 5.5 5.5 5.94772 5.5 6.5C5.5 7.05228 5.94772 7.5 6.5 7.5Z" fill="#2B2B35" stroke="#2B2B35" stroke-width="1.5" stroke-linecap="round" stroke-linejoin="round"/><path d="M2 4.82349V8.45545C2 8.96085 2.20047 9.44555 2.55811 9.80319L10.1966 17.4417C10.3736 17.6187 10.5837 17.7591 10.8149 17.8549C11.0462 17.9507 11.294 18 11.5443 18C11.7947 18 12.0425 17.9507 12.2738 17.8549C12.505 17.7591 12.7151 17.6187 12.8921 17.4417L17.4417 12.8921C17.6187 12.7151 17.7591 12.505 17.8549 12.2738C17.9507 12.0425 18 11.7947 18 11.5443C18 11.294 17.9507 11.0462 17.8549 10.8149C17.7591 10.5837 17.6187 10.3736 17.4417 10.1966L9.80225 2.55811C9.44502 2.20094 8.96061 2.0002 8.45545 2H4.82349C4.07466 2 3.35649 2.29747 2.82698 2.82698C2.29747 3.35649 2 4.07466 2 4.82349V4.82349Z" stroke="#2B2B35" stroke-width="1.5" stroke-linecap="round" stroke-linejoin="round"/></svg>
