<svg width="32" height="32" viewBox="0 0 32 32" xmlns="http://www.w3.org/2000/svg">
  <rect x="7" y="21" width="18" height="5" rx="2.5" fill="#4A5D9F"/>
  <rect x="7.5" y="21.5" width="17" height="4" rx="2" stroke="black" stroke-opacity="0.36"/>
  <path fill-rule="evenodd" clip-rule="evenodd" d="M16.8348 8.68571C16.7122 8.42009 16.4463 8.25 16.1538 8.25C15.8612 8.25 15.5954 8.42009 15.4728 8.68571L11.319 17.6857C11.1454 18.0618 11.3096 18.5074 11.6856 18.681C12.0617 18.8545 12.5073 18.6904 12.6809 18.3143L13.7578 15.981L18.5497 15.981L19.6267 18.3143C19.8002 18.6904 20.2458 18.8545 20.6219 18.681C20.998 18.5074 21.1622 18.0618 20.9886 17.6857L16.8348 8.68571ZM17.8574 14.481L16.1538 10.7897L14.4501 14.481L17.8574 14.481Z" fill="#2B2B35"/>
</svg>
