<svg width="35" height="35" viewBox="0 0 35 35" fill="current" xmlns="http://www.w3.org/2000/svg">
<path d="M17.7812 0.410148C14.4109 0.40139 11.1137 1.38288 8.3067 3.23048C5.49973 5.07808 3.30911 7.70876 2.01197 10.7897C0.714818 13.8707 0.369422 17.2636 1.01946 20.5391C1.66951 23.8146 3.28578 26.8256 5.66383 29.1913C8.04188 31.5569 11.0749 33.1708 14.3791 33.8289C17.6833 34.487 21.1103 34.1597 24.2266 32.8883C27.3429 31.617 30.0085 29.4588 31.8861 26.6867C33.7637 23.9146 34.769 20.6531 34.7748 17.315C34.7788 12.8431 32.992 8.55213 29.8063 5.3831C26.6206 2.21407 22.2961 0.425683 17.7812 0.410148ZM17.7768 2.44491C20.2699 2.44802 22.7223 3.07144 24.9087 4.25795L17.7138 11.3604L10.3026 4.42748C12.57 3.11281 15.1494 2.4187 17.7768 2.41617L17.7768 2.44491ZM17.7122 32.1109C14.6002 32.107 11.5668 31.142 9.03443 29.3503C6.50207 27.5587 4.59677 25.0295 3.58385 22.115C2.57092 19.2004 2.50079 16.0457 3.3832 13.0899C4.2656 10.1341 6.05664 7.52445 8.50692 5.62431L16.2079 12.8311L17.7074 14.3227L26.7283 5.42671C29.2462 7.293 31.1061 9.89799 32.0434 12.8713C32.9807 15.8446 32.9477 19.0349 31.9492 21.9885C30.9507 24.9421 29.0375 27.5087 26.4815 29.3234C23.9256 31.1381 20.857 32.1085 17.7122 32.0965L17.7122 32.1109Z" fill="current"/>
</svg>
