<svg width="10" height="18" viewBox="0 0 10 18" fill="none" xmlns="http://www.w3.org/2000/svg"><path fill-rule="evenodd" clip-rule="evenodd" d="M5.25386 0.794052C5.35481 0.830265 5.44955 0.888804 5.53041 0.96967L8.86375 4.303C9.15664 4.5959 9.15664 5.07077 8.86375 5.36366C8.57085 5.65656 8.09598 5.65656 7.80308 5.36366L5.75 3.31058V14.6895L7.80308 12.6364C8.09598 12.3435 8.57085 12.3435 8.86375 12.6364C9.15664 12.9293 9.15664 13.4042 8.86375 13.6971L5.53041 17.0304C5.48589 17.0749 5.43635 17.1133 5.38312 17.1449C5.30035 17.1942 5.20728 17.228 5.10792 17.2423C5.07241 17.2474 5.03638 17.2501 5.00008 17.2501C4.97005 17.2501 4.9402 17.2483 4.91068 17.2447C4.76914 17.2277 4.63519 17.1707 4.52476 17.0802C4.5057 17.0646 4.48733 17.048 4.46975 17.0304C4.46953 17.0302 4.4693 17.03 4.46907 17.0297L1.13642 13.6971C0.843525 13.4042 0.843525 12.9293 1.13642 12.6364C1.42931 12.3435 1.90418 12.3435 2.19708 12.6364L4.25 14.6893V3.31074L2.19708 5.36366C1.90418 5.65656 1.42931 5.65656 1.13642 5.36366C0.843525 5.07077 0.843525 4.5959 1.13642 4.303L4.46312 0.976302C4.48903 0.949744 4.51689 0.9251 4.54648 0.902605C4.58538 0.87299 4.62651 0.847686 4.66923 0.826692C4.769 0.777584 4.88128 0.75 5 0.75C5.00001 0.75 5.00003 0.75 5.00004 0.75C5.00391 0.75 5.00777 0.750029 5.01164 0.750088C5.09373 0.751345 5.17566 0.766 5.25386 0.794052Z" fill="#2B2B35"/></svg>
