<svg width="32" height="32" viewBox="0 0 32 32" xmlns="http://www.w3.org/2000/svg"><path fill-rule="evenodd" fill="currentColor" clip-rule="evenodd" d="M8.13763 2.6817C6.97379 3.18826 3.98211 6.23626 3.57091 7.33386C3.10275 8.5841 3.78755 9.73994 6.68579 12.5921L9.27907 15.1441L7.38019 17.0721C5.53443 18.9463 5.45059 19.1073 4.38403 22.8401C3.29091 26.6647 3.23171 27.3047 3.94467 27.5703C4.15107 27.6475 6.06659 27.2116 8.20131 26.602L12.0826 25.4939L20.0922 17.4471C26.4861 11.0235 28.1671 9.15818 28.425 8.2001C29.3338 4.82794 26.1578 1.65578 22.8013 2.58282C21.9735 2.8113 20.7555 3.74218 18.8672 5.59018L16.1322 8.26634L13.4423 5.56234C10.4413 2.5457 9.55523 2.06442 8.13763 2.6817ZM9.68771 4.63466C9.79491 4.74154 9.71363 5.0993 9.50755 5.42954C9.20483 5.91434 9.24003 6.13738 9.69155 6.58858C10.1434 7.04042 10.3655 7.07562 10.8519 6.77194C11.6931 6.2465 12.6899 7.2897 12.2077 8.19082C11.7178 9.10634 12.248 9.6865 13.3699 9.46218C13.8947 9.35722 14.4176 9.36426 14.5312 9.47786C14.6448 9.59178 13.8375 10.5934 12.737 11.7038L10.736 13.7227L8.08803 11.0884C6.63171 9.63978 5.44003 8.31146 5.44003 8.13738C5.44003 7.69738 8.69635 4.4401 9.13571 4.4401C9.33251 4.4401 9.58083 4.52778 9.68771 4.63466ZM25.8195 5.13578C26.9392 6.18794 26.8231 7.81834 25.5335 9.1489L24.5066 10.2081L22.656 8.37674L20.8051 6.54538L21.8253 5.49258C23.0759 4.20234 24.6739 4.05962 25.8195 5.13578ZM21.4439 9.72394L23.1859 11.4881L17.0339 17.6462L10.8819 23.8043L8.40387 24.4987C7.04099 24.8804 5.89699 25.1636 5.86147 25.1281C5.82563 25.0926 6.11907 23.9457 6.51331 22.5799L7.23011 20.0964L13.2919 14.0283C16.6259 10.6907 19.432 7.9601 19.5277 7.9601C19.6237 7.9601 20.4858 8.75402 21.4439 9.72394ZM23.4234 17.0129L22.7207 17.7607L23.6586 18.6596C24.4477 19.4155 24.5376 19.6529 24.2247 20.154C23.6832 21.0209 24.608 21.931 25.529 21.4382C26.0099 21.1806 26.2595 21.1979 26.5155 21.5067C26.776 21.8203 26.3776 22.3966 24.8605 23.9003L22.8621 25.8807L20.8058 23.8059L18.7495 21.7313L18.0071 22.4286L17.2647 23.1262L19.1123 25.0075C21.2269 27.1604 22.4864 27.9281 23.4909 27.6759C24.3911 27.45 28.8 22.9179 28.8 22.2183C28.8 21.2788 27.9319 20.0027 26.0074 18.1124L24.1261 16.2647L23.4234 17.0129Z"/></svg>
