<svg width="41" height="41" viewBox="0 0 41 41" fill="none" xmlns="http://www.w3.org/2000/svg"><path d="M10.3052 40.0015H3.68359V0.244626C3.68359 0.110332 3.8046 0.00146484 3.95386 0.00146484H10.0349C10.1842 0.00146484 10.3052 0.110332 10.3052 0.244626V40.0015Z" fill="#003F7F"/><path d="M19.6292 40.0015H13.0076V14.1049C13.0076 13.9706 13.1286 13.8617 13.2779 13.8617H19.3589C19.5082 13.8617 19.6292 13.9706 19.6292 14.1049V40.0015Z" fill="#003F7F"/><path d="M28.9537 40.0015H22.3321V22.9802C22.3321 22.8459 22.4531 22.7371 22.6024 22.7371H28.6835C28.8327 22.7371 28.9537 22.8459 28.9537 22.9802V40.0015Z" fill="#003F7F"/><path d="M38.278 40.0016H31.6564V28.9377C31.6564 28.8034 31.7774 28.6946 31.9267 28.6946H38.0078C38.157 28.6946 38.278 28.8034 38.278 28.9377V40.0016Z" fill="#003F7F"/><path d="M0.845581 40.0015L40.8456 40.0015" stroke="#2B2B35" stroke-width="0.5" stroke-miterlimit="10"/></svg>
