<svg width="41" height="40" viewBox="0 0 41 40" fill="none" xmlns="http://www.w3.org/2000/svg"><path d="M12.5568 24.1193C12.108 24.1165 11.6747 24.0412 11.2571 23.8935C10.8423 23.7457 10.4702 23.5057 10.1406 23.1733C9.81392 22.8409 9.55398 22.4006 9.3608 21.8523C9.17045 21.304 9.07386 20.6307 9.07102 19.8324C9.07386 19.0937 9.15767 18.4332 9.32244 17.8509C9.49006 17.2685 9.72869 16.7756 10.0384 16.3722C10.3509 15.9659 10.7244 15.6577 11.1591 15.4474C11.5938 15.2344 12.081 15.1278 12.6207 15.1278C13.2031 15.1278 13.7173 15.2415 14.1634 15.4688C14.6094 15.696 14.9673 16.0043 15.2372 16.3935C15.5099 16.7827 15.6747 17.2216 15.7315 17.7102H13.9119C13.8409 17.392 13.6918 17.1463 13.4645 16.973C13.2372 16.7969 12.956 16.7088 12.6207 16.7088C12.0526 16.7088 11.6207 16.9574 11.3253 17.4545C11.0327 17.9489 10.8835 18.6278 10.8778 19.4915H10.9375C11.0682 19.233 11.2443 19.0128 11.4659 18.831C11.6903 18.6463 11.9446 18.5057 12.2287 18.4091C12.5156 18.3097 12.8182 18.2599 13.1364 18.2599C13.6534 18.2599 14.1136 18.3821 14.517 18.6264C14.9205 18.8679 15.2386 19.2003 15.4716 19.6236C15.7045 20.0469 15.821 20.5312 15.821 21.0767C15.821 21.6676 15.6832 22.1932 15.4077 22.6534C15.1349 23.1136 14.7528 23.4744 14.2614 23.7358C13.7727 23.9943 13.2045 24.1222 12.5568 24.1193ZM12.5483 22.6705C12.8324 22.6705 13.0866 22.6023 13.3111 22.4659C13.5355 22.3295 13.7116 22.1449 13.8395 21.9119C13.9673 21.679 14.0312 21.4176 14.0312 21.1278C14.0312 20.8381 13.9673 20.5781 13.8395 20.348C13.7145 20.1179 13.5412 19.9347 13.3196 19.7983C13.098 19.6619 12.8452 19.5938 12.5611 19.5938C12.348 19.5938 12.1506 19.6335 11.9688 19.7131C11.7898 19.7926 11.6321 19.9034 11.4957 20.0455C11.3622 20.1875 11.2571 20.3523 11.1804 20.5398C11.1037 20.7244 11.0653 20.9219 11.0653 21.1321C11.0653 21.4134 11.1293 21.6705 11.2571 21.9034C11.3878 22.1364 11.5639 22.3224 11.7855 22.4616C12.0099 22.6009 12.2642 22.6705 12.5483 22.6705ZM17.4744 24L21.0923 16.8409V16.7812H16.8778V15.2727H23.0014V16.8026L19.3793 24H17.4744ZM29.043 22.3636V21.9034C29.0458 21.554 29.1211 21.233 29.2688 20.9403C29.4194 20.6449 29.6367 20.4091 29.9208 20.233C30.2049 20.054 30.5529 19.9645 30.9648 19.9645C31.3825 19.9645 31.7333 20.0526 32.0174 20.2287C32.3043 20.4048 32.5202 20.6406 32.6651 20.9361C32.8129 21.2287 32.8867 21.5511 32.8867 21.9034V22.3636C32.8867 22.7131 32.8129 23.0355 32.6651 23.331C32.5174 23.6236 32.3001 23.858 32.0131 24.0341C31.7262 24.2131 31.3768 24.3026 30.9648 24.3026C30.5472 24.3026 30.1964 24.2131 29.9123 24.0341C29.6282 23.858 29.4123 23.6236 29.2646 23.331C29.1197 23.0355 29.0458 22.7131 29.043 22.3636ZM30.283 21.9034V22.3636C30.2859 22.5653 30.3356 22.7557 30.4322 22.9347C30.5288 23.1136 30.7063 23.2031 30.9648 23.2031C31.2234 23.2031 31.4009 23.1151 31.4975 22.9389C31.5941 22.7628 31.641 22.571 31.6381 22.3636V21.9034C31.641 21.696 31.5955 21.5028 31.5018 21.3239C31.4109 21.1449 31.2319 21.0554 30.9648 21.0554C30.7092 21.0554 30.5316 21.1449 30.4322 21.3239C30.3356 21.5028 30.2859 21.696 30.283 21.9034ZM24.5643 17.3693V16.9091C24.5671 16.5568 24.6424 16.2344 24.7901 15.9418C24.9407 15.6463 25.158 15.4105 25.4421 15.2344C25.729 15.0582 26.0756 14.9702 26.4819 14.9702C26.9023 14.9702 27.2546 15.0582 27.5387 15.2344C27.8256 15.4105 28.0415 15.6463 28.1864 15.9418C28.3342 16.2344 28.408 16.5568 28.408 16.9091V17.3693C28.408 17.7216 28.3342 18.044 28.1864 18.3366C28.0387 18.6293 27.8214 18.8636 27.5344 19.0398C27.2475 19.2131 26.8967 19.2997 26.4819 19.2997C26.0671 19.2997 25.7177 19.2116 25.4336 19.0355C25.1495 18.8565 24.9336 18.6222 24.7859 18.3324C24.641 18.0398 24.5671 17.7187 24.5643 17.3693ZM25.8129 16.9091V17.3693C25.8157 17.5767 25.8654 17.7685 25.962 17.9446C26.0586 18.1207 26.2319 18.2088 26.4819 18.2088C26.7433 18.2088 26.9222 18.1207 27.0188 17.9446C27.1154 17.7685 27.1623 17.5767 27.1594 17.3693V16.9091C27.1623 16.7017 27.1168 16.5085 27.0231 16.3295C26.9322 16.1506 26.7518 16.0611 26.4819 16.0611C26.229 16.0611 26.0543 16.152 25.9577 16.3338C25.864 16.5156 25.8157 16.7074 25.8129 16.9091ZM24.9819 24L30.9819 15.2727H32.0941L26.0941 24H24.9819Z" fill="#0069D1"/><path d="M6.68159 34.1421C3.64735 31.1079 1.66944 27.1782 1.04004 22.9335C0.41064 18.6889 1.16312 14.3543 3.18632 10.5702C5.20952 6.786 8.39617 3.75288 12.2755 1.91883C16.1549 0.0847913 20.5213 -0.452918 24.7298 0.385134L24.2142 2.9743C20.5612 2.24687 16.7712 2.7136 13.4039 4.30555C10.0366 5.8975 7.2706 8.53025 5.51446 11.8149C3.75832 15.0996 3.10517 18.862 3.65149 22.5463C4.19781 26.2307 5.91463 29.6416 8.54836 32.2754L6.68159 34.1421Z" fill="#D9E1FF"/><path d="M20.8237 1.32C20.8237 0.590985 21.4154 -0.00453725 22.1428 0.0435412C25.1064 0.239418 27.9951 1.09344 30.5962 2.55008C33.5818 4.22214 36.0886 6.63231 37.8765 9.55004C39.6645 12.4678 40.674 15.7955 40.8083 19.2148C40.9427 22.6342 40.1974 26.0308 38.6439 29.0798C37.0903 32.1288 34.7804 34.7282 31.9351 36.6294C29.0898 38.5306 25.8043 39.6699 22.3929 39.9383C18.9814 40.2068 15.5582 39.5955 12.4505 38.1628C9.74322 36.9148 7.35436 35.0797 5.45392 32.7972C4.98746 32.237 5.12149 31.4083 5.71128 30.9798C6.30106 30.5513 7.12284 30.6858 7.5949 31.2413C9.22591 33.1607 11.2588 34.7064 13.5558 35.7654C16.2532 37.0089 19.2246 37.5395 22.1858 37.3065C25.1469 37.0734 27.9987 36.0845 30.4684 34.4343C32.9381 32.7841 34.9431 30.5278 36.2916 27.8813C37.6401 25.2347 38.287 22.2865 38.1703 19.3185C38.0537 16.3505 37.1775 13.462 35.6256 10.9294C34.0736 8.39684 31.8978 6.30482 29.3062 4.85347C27.0994 3.6176 24.654 2.88149 22.1425 2.69016C21.4156 2.63478 20.8237 2.04902 20.8237 1.32Z" fill="#0069D1"/></svg>
