<svg width="57" height="28" viewBox="0 0 57 28" fill="none" xmlns="http://www.w3.org/2000/svg"><path d="M6.49998 13.5978C5.64807 13.0357 5.40835 11.8851 6.02537 11.0722C9.26821 6.79937 13.6796 3.53681 18.7438 1.69171C24.3884 -0.364801 30.5447 -0.551364 36.3034 1.15958C42.0621 2.87053 47.1178 6.38825 50.7238 11.1931C53.9591 15.5041 55.8734 20.6461 56.2572 25.9963C56.3302 27.0143 55.5011 27.8474 54.4805 27.8531C53.4599 27.8588 52.6352 27.0348 52.552 26.0176C52.1791 21.4611 50.5268 17.0882 47.7677 13.4117C44.6377 9.24101 40.2493 6.18762 35.2508 4.70252C30.2522 3.21742 24.9085 3.37935 20.0091 5.16441C15.6901 6.73798 11.9182 9.49929 9.11788 13.1131C8.49273 13.9198 7.35189 14.1599 6.49998 13.5978Z" fill="#D9E1FF"/><path d="M2.17684 28C1.15622 28 0.322487 27.1717 0.389795 26.1533C0.672148 21.8812 1.93124 17.722 4.08013 14C6.53764 9.74346 10.0723 6.2088 14.3288 3.75129C18.5854 1.29378 23.4138 2.34347e-07 28.3288 0C32.6266 -2.04917e-07 36.8582 0.989225 40.6991 2.88074C41.6147 3.33165 41.9151 4.46782 41.4048 5.3517C40.8945 6.23559 39.7669 6.53149 38.8468 6.08979C35.5715 4.51747 31.9777 3.696 28.3288 3.696C24.0626 3.696 19.8715 4.819 16.1768 6.95212C12.4822 9.08524 9.41408 12.1533 7.28096 15.848C5.45655 19.008 4.37105 22.5311 4.09506 26.1537C4.01753 27.1714 3.19746 28 2.17684 28Z" fill="#0069D1"/><path d="M19.3857 24.1193C18.9368 24.1165 18.5036 24.0412 18.086 23.8935C17.6712 23.7457 17.299 23.5057 16.9695 23.1733C16.6428 22.8409 16.3828 22.4006 16.1897 21.8523C15.9993 21.304 15.9027 20.6307 15.8999 19.8324C15.9027 19.0937 15.9865 18.4332 16.1513 17.8509C16.3189 17.2685 16.5576 16.7756 16.8672 16.3722C17.1797 15.9659 17.5533 15.6577 17.9879 15.4474C18.4226 15.2344 18.9098 15.1278 19.4496 15.1278C20.032 15.1278 20.5462 15.2415 20.9922 15.4688C21.4382 15.696 21.7962 16.0043 22.0661 16.3935C22.3388 16.7827 22.5036 17.2216 22.5604 17.7102H20.7408C20.6698 17.392 20.5206 17.1463 20.2933 16.973C20.0661 16.7969 19.7848 16.7088 19.4496 16.7088C18.8814 16.7088 18.4496 16.9574 18.1541 17.4545C17.8615 17.9489 17.7124 18.6278 17.7067 19.4915H17.7664C17.897 19.233 18.0732 19.0128 18.2948 18.831C18.5192 18.6463 18.7735 18.5057 19.0576 18.4091C19.3445 18.3097 19.647 18.2599 19.9652 18.2599C20.4823 18.2599 20.9425 18.3821 21.3459 18.6264C21.7493 18.8679 22.0675 19.2003 22.3004 19.6236C22.5334 20.0469 22.6499 20.5312 22.6499 21.0767C22.6499 21.6676 22.5121 22.1932 22.2365 22.6534C21.9638 23.1136 21.5817 23.4744 21.0902 23.7358C20.6016 23.9943 20.0334 24.1222 19.3857 24.1193ZM19.3772 22.6705C19.6612 22.6705 19.9155 22.6023 20.1399 22.4659C20.3644 22.3295 20.5405 22.1449 20.6683 21.9119C20.7962 21.679 20.8601 21.4176 20.8601 21.1278C20.8601 20.8381 20.7962 20.5781 20.6683 20.348C20.5433 20.1179 20.3701 19.9347 20.1485 19.7983C19.9269 19.6619 19.674 19.5938 19.3899 19.5938C19.1769 19.5938 18.9794 19.6335 18.7976 19.7131C18.6186 19.7926 18.461 19.9034 18.3246 20.0455C18.1911 20.1875 18.086 20.3523 18.0093 20.5398C17.9326 20.7244 17.8942 20.9219 17.8942 21.1321C17.8942 21.4134 17.9581 21.6705 18.086 21.9034C18.2166 22.1364 18.3928 22.3224 18.6144 22.4616C18.8388 22.6009 19.0931 22.6705 19.3772 22.6705ZM24.3033 24L27.9212 16.8409V16.7812H23.7067V15.2727H29.8303V16.8026L26.2081 24H24.3033ZM35.8718 22.3636V21.9034C35.8747 21.554 35.95 21.233 36.0977 20.9403C36.2482 20.6449 36.4656 20.4091 36.7497 20.233C37.0338 20.054 37.3818 19.9645 37.7937 19.9645C38.2113 19.9645 38.5622 20.0526 38.8463 20.2287C39.1332 20.4048 39.3491 20.6406 39.494 20.9361C39.6417 21.2287 39.7156 21.5511 39.7156 21.9034V22.3636C39.7156 22.7131 39.6417 23.0355 39.494 23.331C39.3463 23.6236 39.1289 23.858 38.842 24.0341C38.5551 24.2131 38.2056 24.3026 37.7937 24.3026C37.3761 24.3026 37.0252 24.2131 36.7411 24.0341C36.4571 23.858 36.2411 23.6236 36.0934 23.331C35.9485 23.0355 35.8747 22.7131 35.8718 22.3636ZM37.1119 21.9034V22.3636C37.1147 22.5653 37.1644 22.7557 37.261 22.9347C37.3576 23.1136 37.5352 23.2031 37.7937 23.2031C38.0522 23.2031 38.2298 23.1151 38.3264 22.9389C38.423 22.7628 38.4698 22.571 38.467 22.3636V21.9034C38.4698 21.696 38.4244 21.5028 38.3306 21.3239C38.2397 21.1449 38.0607 21.0554 37.7937 21.0554C37.538 21.0554 37.3605 21.1449 37.261 21.3239C37.1644 21.5028 37.1147 21.696 37.1119 21.9034ZM31.3931 17.3693V16.9091C31.396 16.5568 31.4713 16.2344 31.619 15.9418C31.7696 15.6463 31.9869 15.4105 32.271 15.2344C32.5579 15.0582 32.9045 14.9702 33.3107 14.9702C33.7312 14.9702 34.0835 15.0582 34.3676 15.2344C34.6545 15.4105 34.8704 15.6463 35.0153 15.9418C35.163 16.2344 35.2369 16.5568 35.2369 16.9091V17.3693C35.2369 17.7216 35.163 18.044 35.0153 18.3366C34.8676 18.6293 34.6502 18.8636 34.3633 19.0398C34.0764 19.2131 33.7255 19.2997 33.3107 19.2997C32.896 19.2997 32.5465 19.2116 32.2625 19.0355C31.9784 18.8565 31.7625 18.6222 31.6147 18.3324C31.4698 18.0398 31.396 17.7187 31.3931 17.3693ZM32.6417 16.9091V17.3693C32.6446 17.5767 32.6943 17.7685 32.7909 17.9446C32.8875 18.1207 33.0607 18.2088 33.3107 18.2088C33.5721 18.2088 33.7511 18.1207 33.8477 17.9446C33.9443 17.7685 33.9911 17.5767 33.9883 17.3693V16.9091C33.9911 16.7017 33.9457 16.5085 33.8519 16.3295C33.761 16.1506 33.5806 16.0611 33.3107 16.0611C33.0579 16.0611 32.8832 16.152 32.7866 16.3338C32.6928 16.5156 32.6446 16.7074 32.6417 16.9091ZM31.8107 24L37.8107 15.2727H38.923L32.923 24H31.8107Z" fill="#0069D1"/></svg>
