<svg width="99" height="20" viewBox="0 0 99 20" fill="none" xmlns="http://www.w3.org/2000/svg">
<path d="M5.39513 15.1345C4.88933 15.1313 4.40113 15.0464 3.93054 14.88C3.46315 14.7135 3.04377 14.443 2.67242 14.0684C2.30427 13.6939 2.01135 13.1977 1.79366 12.5798C1.57918 11.962 1.47033 11.2033 1.46713 10.3037C1.47033 9.47135 1.56477 8.72704 1.75045 8.07078C1.93932 7.41451 2.20823 6.85908 2.55718 6.4045C2.90932 5.94671 3.33029 5.59937 3.82009 5.36247C4.30989 5.12237 4.85891 5.00233 5.46716 5.00233C6.12343 5.00233 6.70287 5.13038 7.20547 5.38648C7.70807 5.64259 8.11144 5.98993 8.41556 6.42851C8.72289 6.86709 8.90856 7.36169 8.97259 7.91231H6.92215C6.84212 7.55377 6.67405 7.27685 6.41795 7.08157C6.16184 6.88309 5.84492 6.78385 5.46716 6.78385C4.8269 6.78385 4.3403 7.06397 4.00737 7.62419C3.67763 8.18122 3.50956 8.94633 3.50316 9.91953H3.57039C3.71765 9.62821 3.91613 9.38011 4.16583 9.17523C4.41873 8.96714 4.70525 8.80868 5.02538 8.69983C5.34871 8.58779 5.68965 8.53176 6.0482 8.53176C6.63084 8.53176 7.14945 8.66942 7.60403 8.94473C8.05862 9.21684 8.41716 9.5914 8.67967 10.0684C8.94218 10.5454 9.07343 11.0912 9.07343 11.7059C9.07343 12.3717 8.91817 12.964 8.60764 13.4826C8.30032 14.0012 7.86974 14.4078 7.31592 14.7023C6.76529 14.9936 6.12503 15.1377 5.39513 15.1345ZM5.38553 13.5018C5.70566 13.5018 5.99218 13.425 6.24508 13.2713C6.49798 13.1176 6.69646 12.9095 6.84052 12.647C6.98458 12.3845 7.05661 12.09 7.05661 11.7635C7.05661 11.4369 6.98458 11.144 6.84052 10.8847C6.69966 10.6254 6.50438 10.4189 6.25468 10.2653C6.00498 10.1116 5.72006 10.0348 5.39993 10.0348C5.15984 10.0348 4.93735 10.0796 4.73246 10.1692C4.53078 10.2589 4.35311 10.3837 4.19945 10.5438C4.04898 10.7038 3.93054 10.8895 3.8441 11.1008C3.75767 11.3089 3.71445 11.5314 3.71445 11.7683C3.71445 12.0852 3.78648 12.3749 3.93054 12.6374C4.0778 12.8999 4.27628 13.1096 4.52598 13.2665C4.77888 13.4234 5.0654 13.5018 5.38553 13.5018ZM10.6797 15L14.7565 6.93271V6.86549H10.0074V5.16559H16.9078V6.88949L12.8261 15H10.6797ZM23.4589 13.156V12.6374C23.4621 12.2437 23.5469 11.8819 23.7134 11.5522C23.883 11.2193 24.1279 10.9536 24.4481 10.7551C24.7682 10.5534 25.1603 10.4525 25.6245 10.4525C26.0951 10.4525 26.4905 10.5518 26.8106 10.7503C27.134 10.9487 27.3773 11.2145 27.5405 11.5474C27.707 11.8771 27.7902 12.2405 27.7902 12.6374V13.156C27.7902 13.5498 27.707 13.9132 27.5405 14.2461C27.3741 14.5758 27.1292 14.8399 26.8058 15.0384C26.4825 15.2401 26.0887 15.3409 25.6245 15.3409C25.1539 15.3409 24.7586 15.2401 24.4385 15.0384C24.1183 14.8399 23.875 14.5758 23.7086 14.2461C23.5453 13.9132 23.4621 13.5498 23.4589 13.156ZM24.8562 12.6374V13.156C24.8594 13.3833 24.9154 13.5978 25.0243 13.7995C25.1331 14.0012 25.3332 14.102 25.6245 14.102C25.9159 14.102 26.1159 14.0028 26.2248 13.8043C26.3336 13.6058 26.3864 13.3897 26.3832 13.156V12.6374C26.3864 12.4037 26.3352 12.1861 26.2296 11.9844C26.1271 11.7827 25.9255 11.6818 25.6245 11.6818C25.3364 11.6818 25.1363 11.7827 25.0243 11.9844C24.9154 12.1861 24.8594 12.4037 24.8562 12.6374ZM18.412 7.52816V7.00954C18.4152 6.61258 18.5 6.24923 18.6665 5.9195C18.8362 5.58656 19.0811 5.32086 19.4012 5.12237C19.7245 4.92389 20.1151 4.82465 20.5729 4.82465C21.0467 4.82465 21.4436 4.92389 21.7638 5.12237C22.0871 5.32086 22.3304 5.58656 22.4937 5.9195C22.6601 6.24923 22.7434 6.61258 22.7434 7.00954V7.52816C22.7434 7.92512 22.6601 8.28846 22.4937 8.6182C22.3272 8.94793 22.0823 9.21204 21.759 9.41052C21.4356 9.6058 21.0403 9.70344 20.5729 9.70344C20.1055 9.70344 19.7117 9.6042 19.3916 9.40572C19.0715 9.20404 18.8282 8.93993 18.6617 8.6134C18.4984 8.28366 18.4152 7.92192 18.412 7.52816ZM19.819 7.00954V7.52816C19.8222 7.76185 19.8782 7.97794 19.987 8.17642C20.0959 8.3749 20.2912 8.47414 20.5729 8.47414C20.8674 8.47414 21.0691 8.3749 21.1779 8.17642C21.2868 7.97794 21.3396 7.76185 21.3364 7.52816V7.00954C21.3396 6.77585 21.2884 6.55816 21.1827 6.35648C21.0803 6.1548 20.877 6.05395 20.5729 6.05395C20.288 6.05395 20.0911 6.1564 19.9822 6.36128C19.8766 6.56616 19.8222 6.78225 19.819 7.00954ZM18.8826 15L25.6437 5.16559H26.8971L20.1359 15H18.8826Z" fill="#0069D1"/>
<path d="M39.1113 4.1084C37.5303 4.1084 36.2367 5.75004 36.2367 7.77278C36.2367 9.79551 37.5303 11.4372 39.1113 11.4372C40.6924 11.4372 41.986 9.79551 41.986 7.77278C41.986 5.75004 40.6924 4.1084 39.1113 4.1084ZM36.1073 11.4372C34.5838 11.5104 33.3621 12.7856 33.3621 14.3687V15.8344H44.8606V14.3687C44.8606 12.7856 43.6533 11.5104 42.1153 11.4372C41.3392 12.3313 40.2756 12.9029 39.1113 12.9029C37.9471 12.9029 36.8835 12.3313 36.1073 11.4372Z" fill="#0069D1"/>
<path d="M52.5001 4.1084C50.919 4.1084 49.6254 5.75004 49.6254 7.77278C49.6254 9.79551 50.919 11.4372 52.5001 11.4372C54.0811 11.4372 55.3747 9.79551 55.3747 7.77278C55.3747 5.75004 54.0811 4.1084 52.5001 4.1084ZM49.4961 11.4372C47.9725 11.5104 46.7508 12.7856 46.7508 14.3687V15.8344H58.2493V14.3687C58.2493 12.7856 57.042 11.5104 55.5041 11.4372C54.7279 12.3313 53.6643 12.9029 52.5001 12.9029C51.3358 12.9029 50.2722 12.3313 49.4961 11.4372Z" fill="#0069D1"/>
<path d="M65.8183 4.1084C64.2372 4.1084 62.9436 5.75004 62.9436 7.77278C62.9436 9.79551 64.2372 11.4372 65.8183 11.4372C67.3993 11.4372 68.6929 9.79551 68.6929 7.77278C68.6929 5.75004 67.3993 4.1084 65.8183 4.1084ZM62.8143 11.4372C61.2907 11.5104 60.069 12.7856 60.069 14.3687V15.8344H71.5675V14.3687C71.5675 12.7856 70.3602 11.5104 68.8223 11.4372C68.0461 12.3313 66.9825 12.9029 65.8183 12.9029C64.654 12.9029 63.5904 12.3313 62.8143 11.4372Z" fill="#0069D1"/>
<path d="M79.207 4.1084C77.626 4.1084 76.3324 5.75004 76.3324 7.77278C76.3324 9.79551 77.626 11.4372 79.207 11.4372C80.7881 11.4372 82.0817 9.79551 82.0817 7.77278C82.0817 5.75004 80.7881 4.1084 79.207 4.1084ZM76.203 11.4372C74.6795 11.5104 73.4578 12.7856 73.4578 14.3687V15.8344H84.9563V14.3687C84.9563 12.7856 83.749 11.5104 82.211 11.4372C81.4349 12.3313 80.3713 12.9029 79.207 12.9029C78.0428 12.9029 76.9792 12.3313 76.203 11.4372Z" fill="#D9E1FF"/>
<g clip-path="url(#clip0_78_7420)">
<path d="M79.2073 4.1084C77.6262 4.1084 76.3326 5.75004 76.3326 7.77278C76.3326 9.79551 77.6262 11.4372 79.2073 11.4372C80.7883 11.4372 82.0819 9.79551 82.0819 7.77278C82.0819 5.75004 80.7883 4.1084 79.2073 4.1084ZM76.2033 11.4372C74.6797 11.5104 73.458 12.7856 73.458 14.3687V15.8344H84.9565V14.3687C84.9565 12.7856 83.7492 11.5104 82.2112 11.4372C81.4351 12.3313 80.3715 12.9029 79.2073 12.9029C78.043 12.9029 76.9794 12.3313 76.2033 11.4372Z" fill="#0069D1"/>
</g>
<path d="M92.7268 4.1084C91.1457 4.1084 89.8521 5.75004 89.8521 7.77278C89.8521 9.79551 91.1457 11.4372 92.7268 11.4372C94.3078 11.4372 95.6014 9.79551 95.6014 7.77278C95.6014 5.75004 94.3078 4.1084 92.7268 4.1084ZM89.7228 11.4372C88.1992 11.5104 86.9775 12.7856 86.9775 14.3687V15.8344H98.4761V14.3687C98.4761 12.7856 97.2687 11.5104 95.7308 11.4372C94.9546 12.3313 93.891 12.9029 92.7268 12.9029C91.5626 12.9029 90.4989 12.3313 89.7228 11.4372Z" fill="#D9E1FF"/>
<defs>
<clipPath id="clip0_78_7420">
<rect width="7.12112" height="11.7772" fill="white" transform="translate(73.4455 4.1084)"/>
</clipPath>
</defs>
</svg>
