<svg width="57" height="40" viewBox="0 0 57 40" fill="none" xmlns="http://www.w3.org/2000/svg"><path d="M19.8805 22.1193C19.4317 22.1165 18.9984 22.0412 18.5808 21.8935C18.1661 21.7457 17.7939 21.5057 17.4644 21.1733C17.1377 20.8409 16.8777 20.4006 16.6845 19.8523C16.4942 19.304 16.3976 18.6307 16.3948 17.8324C16.3976 17.0937 16.4814 16.4332 16.6462 15.8509C16.8138 15.2685 17.0524 14.7756 17.3621 14.3722C17.6746 13.9659 18.0482 13.6577 18.4828 13.4474C18.9175 13.2344 19.4047 13.1278 19.9445 13.1278C20.5269 13.1278 21.0411 13.2415 21.4871 13.4688C21.9331 13.696 22.2911 14.0043 22.5609 14.3935C22.8337 14.7827 22.9984 15.2216 23.0553 15.7102H21.2357C21.1646 15.392 21.0155 15.1463 20.7882 14.973C20.5609 14.7969 20.2797 14.7088 19.9445 14.7088C19.3763 14.7088 18.9445 14.9574 18.649 15.4545C18.3564 15.9489 18.2073 16.6278 18.2016 17.4915H18.2612C18.3919 17.233 18.568 17.0128 18.7896 16.831C19.0141 16.6463 19.2683 16.5057 19.5524 16.4091C19.8394 16.3097 20.1419 16.2599 20.4601 16.2599C20.9771 16.2599 21.4374 16.3821 21.8408 16.6264C22.2442 16.8679 22.5624 17.2003 22.7953 17.6236C23.0283 18.0469 23.1448 18.5312 23.1448 19.0767C23.1448 19.6676 23.007 20.1932 22.7314 20.6534C22.4587 21.1136 22.0766 21.4744 21.5851 21.7358C21.0965 21.9943 20.5283 22.1222 19.8805 22.1193ZM19.872 20.6705C20.1561 20.6705 20.4104 20.6023 20.6348 20.4659C20.8592 20.3295 21.0354 20.1449 21.1632 19.9119C21.2911 19.679 21.355 19.4176 21.355 19.1278C21.355 18.8381 21.2911 18.5781 21.1632 18.348C21.0382 18.1179 20.8649 17.9347 20.6433 17.7983C20.4217 17.6619 20.1689 17.5938 19.8848 17.5938C19.6717 17.5938 19.4743 17.6335 19.2925 17.7131C19.1135 17.7926 18.9558 17.9034 18.8195 18.0455C18.6859 18.1875 18.5808 18.3523 18.5041 18.5398C18.4274 18.7244 18.3891 18.9219 18.3891 19.1321C18.3891 19.4134 18.453 19.6705 18.5808 19.9034C18.7115 20.1364 18.8877 20.3224 19.1092 20.4616C19.3337 20.6009 19.5879 20.6705 19.872 20.6705ZM24.7982 22L28.4161 14.8409V14.7812H24.2016V13.2727H30.3252V14.8026L26.703 22H24.7982ZM36.3667 20.3636V19.9034C36.3695 19.554 36.4448 19.233 36.5926 18.9403C36.7431 18.6449 36.9604 18.4091 37.2445 18.233C37.5286 18.054 37.8766 17.9645 38.2886 17.9645C38.7062 17.9645 39.057 18.0526 39.3411 18.2287C39.6281 18.4048 39.844 18.6406 39.9889 18.9361C40.1366 19.2287 40.2104 19.5511 40.2104 19.9034V20.3636C40.2104 20.7131 40.1366 21.0355 39.9889 21.331C39.8411 21.6236 39.6238 21.858 39.3369 22.0341C39.0499 22.2131 38.7005 22.3026 38.2886 22.3026C37.871 22.3026 37.5201 22.2131 37.236 22.0341C36.9519 21.858 36.736 21.6236 36.5883 21.331C36.4434 21.0355 36.3695 20.7131 36.3667 20.3636ZM37.6068 19.9034V20.3636C37.6096 20.5653 37.6593 20.7557 37.7559 20.9347C37.8525 21.1136 38.0301 21.2031 38.2886 21.2031C38.5471 21.2031 38.7247 21.1151 38.8212 20.9389C38.9178 20.7628 38.9647 20.571 38.9619 20.3636V19.9034C38.9647 19.696 38.9193 19.5028 38.8255 19.3239C38.7346 19.1449 38.5556 19.0554 38.2886 19.0554C38.0329 19.0554 37.8553 19.1449 37.7559 19.3239C37.6593 19.5028 37.6096 19.696 37.6068 19.9034ZM31.888 15.3693V14.9091C31.8908 14.5568 31.9661 14.2344 32.1139 13.9418C32.2644 13.6463 32.4818 13.4105 32.7658 13.2344C33.0528 13.0582 33.3994 12.9702 33.8056 12.9702C34.2261 12.9702 34.5783 13.0582 34.8624 13.2344C35.1494 13.4105 35.3653 13.6463 35.5102 13.9418C35.6579 14.2344 35.7318 14.5568 35.7318 14.9091V15.3693C35.7318 15.7216 35.6579 16.044 35.5102 16.3366C35.3624 16.6293 35.1451 16.8636 34.8582 17.0398C34.5712 17.2131 34.2204 17.2997 33.8056 17.2997C33.3908 17.2997 33.0414 17.2116 32.7573 17.0355C32.4732 16.8565 32.2573 16.6222 32.1096 16.3324C31.9647 16.0398 31.8908 15.7187 31.888 15.3693ZM33.1366 14.9091V15.3693C33.1394 15.5767 33.1891 15.7685 33.2857 15.9446C33.3823 16.1207 33.5556 16.2088 33.8056 16.2088C34.067 16.2088 34.246 16.1207 34.3426 15.9446C34.4391 15.7685 34.486 15.5767 34.4832 15.3693V14.9091C34.486 14.7017 34.4406 14.5085 34.3468 14.3295C34.2559 14.1506 34.0755 14.0611 33.8056 14.0611C33.5528 14.0611 33.3781 14.152 33.2815 14.3338C33.1877 14.5156 33.1394 14.7074 33.1366 14.9091ZM32.3056 22L38.3056 13.2727H39.4178L33.4178 22H32.3056Z" fill="#0069D1"/><rect x="0.82373" y="27" width="56" height="3" rx="1.5" fill="#D9E1FF"/><rect x="0.82373" y="27" width="38" height="3" rx="1.5" fill="#0069D1"/></svg>
