<svg width="57" height="31" viewBox="0 0 57 31" fill="none" xmlns="http://www.w3.org/2000/svg">
  <path fill-rule="evenodd" clip-rule="evenodd" d="M1.12911 0.0392925C1.18893 0.0139911 1.25469 0 1.32373 0H56.3237C56.5999 0 56.8237 0.223858 56.8237 0.5V7.15385V12.6152V13.1152V18.5772V19.0772V24.5386V25.0386V30.5C56.8237 30.7761 56.5999 31 56.3237 31H43.8237H43.3237H28.8237H28.3237H14.8237H14.3237H1.32373C1.04759 31 0.82373 30.7761 0.82373 30.5V25.0386V24.5386V19.0771V18.5771V13.1152V12.6152V7.15385V0.5V0.5C0.82373 0.482741 0.824605 0.465687 0.826312 0.448878L1.12911 0.0392925ZM1.32373 25.0386V30.5H14.3237V25.0386H1.32373ZM14.3237 24.5386H1.32373V19.0771H14.3237V24.5386ZM14.8237 25.0386V30.5H28.3237V25.0386H14.8237ZM28.3237 24.5386H14.8237V19.0772H28.3237V24.5386ZM28.8237 25.0386V30.5H43.3237V25.0386L28.8237 25.0386ZM43.3237 24.5386L28.8237 24.5386V19.0772L43.3237 19.0772V24.5386ZM43.8237 25.0386V30.5H56.3237V25.0386H43.8237ZM56.3237 24.5386H43.8237V19.0772H56.3237V24.5386ZM56.3237 13.1152V18.5772H43.8237V13.1152L56.3237 13.1152ZM43.3237 13.1152V18.5772L28.8237 18.5772V13.1152L43.3237 13.1152ZM28.3237 13.1152V18.5772H14.8237V13.1152L28.3237 13.1152ZM14.3237 13.1152V18.5771H1.32373V13.1152L14.3237 13.1152ZM43.8237 12.6152L56.3237 12.6152V7.15385L43.8237 7.15385V12.6152ZM43.3237 7.15385V12.6152L28.8237 12.6152V7.15385H43.3237ZM28.3237 12.6152L14.8237 12.6152V7.15385H28.3237V12.6152ZM14.3237 12.6152V7.15385L1.32373 7.15385V12.6152L14.3237 12.6152Z" fill="#003F7F"/>
</svg>
